<?xml version="1.0" encoding="UTF-8"?>
<svg id="Livello_1" xmlns="http://www.w3.org/2000/svg" xmlns:xlink="http://www.w3.org/1999/xlink" version="1.1" viewBox="0 0 32 32">
  <!-- Generator: Adobe Illustrator 29.6.1, SVG Export Plug-In . SVG Version: 2.1.1 Build 9)  -->
  <defs>
    <style>
      .st0 {
        fill: url(#Sfumatura_senza_nome_12);
      }

      .st1 {
        fill: url(#Sfumatura_senza_nome_13);
      }

      .st2 {
        fill: url(#Sfumatura_senza_nome_14);
      }

      .st3 {
        fill: url(#Sfumatura_senza_nome_10);
      }

      .st4 {
        fill: url(#Sfumatura_senza_nome_11);
      }

      .st5 {
        fill: url(#Sfumatura_senza_nome);
      }

      .st6 {
        fill: #1b1d1f;
      }

      .st7 {
        fill: url(#Sfumatura_senza_nome_8);
      }

      .st8 {
        fill: url(#Sfumatura_senza_nome_9);
      }

      .st9 {
        fill: url(#Sfumatura_senza_nome_6);
      }

      .st10 {
        fill: url(#Sfumatura_senza_nome_7);
      }

      .st11 {
        fill: url(#Sfumatura_senza_nome_5);
      }

      .st12 {
        fill: url(#Sfumatura_senza_nome_3);
      }

      .st13 {
        fill: url(#Sfumatura_senza_nome_4);
      }

      .st14 {
        fill: url(#Sfumatura_senza_nome_2);
      }
    </style>
    <linearGradient id="Sfumatura_senza_nome" data-name="Sfumatura senza nome" x1="7.4" y1="34.1" x2="7.4" y2="18.7" gradientTransform="translate(0 33.4) scale(1 -1)" gradientUnits="userSpaceOnUse">
      <stop offset="0" stop-color="#fff"/>
      <stop offset="1" stop-color="#636362"/>
    </linearGradient>
    <linearGradient id="Sfumatura_senza_nome_2" data-name="Sfumatura senza nome 2" x1="17" y1="34.1" x2="17" y2="18.7" gradientTransform="translate(0 33.4) scale(1 -1)" gradientUnits="userSpaceOnUse">
      <stop offset="0" stop-color="#fff"/>
      <stop offset="1" stop-color="#636362"/>
    </linearGradient>
    <linearGradient id="Sfumatura_senza_nome_3" data-name="Sfumatura senza nome 3" x1="25.6" y1="34.1" x2="25.6" y2="18.7" gradientTransform="translate(0 33.4) scale(1 -1)" gradientUnits="userSpaceOnUse">
      <stop offset="0" stop-color="#fff"/>
      <stop offset="1" stop-color="#636362"/>
    </linearGradient>
    <linearGradient id="Sfumatura_senza_nome_4" data-name="Sfumatura senza nome 4" x1="9.1" y1="29.5" x2="9.1" y2="5.8" gradientTransform="translate(0 33.4) scale(1 -1)" gradientUnits="userSpaceOnUse">
      <stop offset="0" stop-color="#c73c40"/>
      <stop offset="1" stop-color="#741709"/>
    </linearGradient>
    <linearGradient id="Sfumatura_senza_nome_5" data-name="Sfumatura senza nome 5" x1="27.6" y1="29.5" x2="27.6" y2="5.8" gradientTransform="translate(0 33.4) scale(1 -1)" gradientUnits="userSpaceOnUse">
      <stop offset="0" stop-color="#c73c40"/>
      <stop offset="1" stop-color="#741709"/>
    </linearGradient>
    <linearGradient id="Sfumatura_senza_nome_6" data-name="Sfumatura senza nome 6" x1="24.1" y1="29.5" x2="24.1" y2="5.8" gradientTransform="translate(0 33.4) scale(1 -1)" gradientUnits="userSpaceOnUse">
      <stop offset="0" stop-color="#c73c40"/>
      <stop offset="1" stop-color="#741709"/>
    </linearGradient>
    <linearGradient id="Sfumatura_senza_nome_7" data-name="Sfumatura senza nome 7" x1="20.5" y1="29.5" x2="20.5" y2="5.8" gradientTransform="translate(0 33.4) scale(1 -1)" gradientUnits="userSpaceOnUse">
      <stop offset="0" stop-color="#c73c40"/>
      <stop offset="1" stop-color="#741709"/>
    </linearGradient>
    <linearGradient id="Sfumatura_senza_nome_8" data-name="Sfumatura senza nome 8" x1="16.8" y1="29.5" x2="16.8" y2="5.8" gradientTransform="translate(0 33.4) scale(1 -1)" gradientUnits="userSpaceOnUse">
      <stop offset="0" stop-color="#c73c40"/>
      <stop offset="1" stop-color="#741709"/>
    </linearGradient>
    <linearGradient id="Sfumatura_senza_nome_9" data-name="Sfumatura senza nome 9" x1="13" y1="29.5" x2="13" y2="5.8" gradientTransform="translate(0 33.4) scale(1 -1)" gradientUnits="userSpaceOnUse">
      <stop offset="0" stop-color="#c73c40"/>
      <stop offset="1" stop-color="#741709"/>
    </linearGradient>
    <linearGradient id="Sfumatura_senza_nome_10" data-name="Sfumatura senza nome 10" x1="5.5" y1="29.5" x2="5.5" y2="5.8" gradientTransform="translate(0 33.4) scale(1 -1)" gradientUnits="userSpaceOnUse">
      <stop offset="0" stop-color="#c73c40"/>
      <stop offset="1" stop-color="#741709"/>
    </linearGradient>
    <linearGradient id="Sfumatura_senza_nome_11" data-name="Sfumatura senza nome 11" x1="16.5" y1="29.5" x2="16.5" y2="5.8" gradientTransform="translate(0 33.4) scale(1 -1)" gradientUnits="userSpaceOnUse">
      <stop offset="0" stop-color="#c73c40"/>
      <stop offset="1" stop-color="#741709"/>
    </linearGradient>
    <linearGradient id="Sfumatura_senza_nome_12" data-name="Sfumatura senza nome 12" x1="19.6" y1="29.5" x2="19.6" y2="5.8" gradientTransform="translate(0 33.4) scale(1 -1)" gradientUnits="userSpaceOnUse">
      <stop offset="0" stop-color="#c73c40"/>
      <stop offset="1" stop-color="#741709"/>
    </linearGradient>
    <linearGradient id="Sfumatura_senza_nome_13" data-name="Sfumatura senza nome 13" x1="23.7" y1="29.5" x2="23.7" y2="5.8" gradientTransform="translate(0 33.4) scale(1 -1)" gradientUnits="userSpaceOnUse">
      <stop offset="0" stop-color="#c73c40"/>
      <stop offset="1" stop-color="#741709"/>
    </linearGradient>
    <linearGradient id="Sfumatura_senza_nome_14" data-name="Sfumatura senza nome 14" x1="26.7" y1="29.5" x2="26.7" y2="5.8" gradientTransform="translate(0 33.4) scale(1 -1)" gradientUnits="userSpaceOnUse">
      <stop offset="0" stop-color="#c73c40"/>
      <stop offset="1" stop-color="#741709"/>
    </linearGradient>
  </defs>
  <rect class="st6" width="32" height="32"/>
  <g>
    <g>
      <path class="st5" d="M11.3,13.2v-6.7h-2v3.3h-3.3v-3.3h-2v3.3h-1.3v2h1.3v2.3h1.3c.2,0,.5,0,.7,0v-2.4h3.3v1.3c0,1.1.5,1.8,1.4,1.9v-1h1.3v-1h-.7Z"/>
      <path class="st14" d="M18.5,15.2h0s0,0,0,0h0s0,0,0,0ZM21.2,11.9v-2c0-2.2-1.3-3.3-3.9-3.3h-4.7v2h4.7c1,0,1.6.4,1.6,1.3h-6.2v4.3h.1c.8,0,1.4.3,1.8.8v-.8h2c.9,0,1.6.4,1.9,1,.4-.7,1.1-1.1,2-1.1s.5,0,.8.1v-1h-6.2v-1.3h6.2,0Z"/>
      <path class="st12" d="M21.9,6.6v8c.2.1.3.3.4.4.3-.6,1-.9,1.8-.9s1.6.4,1.9,1.1h.2v-.5c0,0,.2-.6.2-.6h2.4v.6c0,0,.2.5.2.5h.3V6.6h-7.3,0ZM27.2,13.2h-3.3v-4.7h3.3v4.7Z"/>
    </g>
    <g>
      <path class="st13" d="M10.7,20.6l-1-5.8h-1.2l-.8,4.7-.2.9v.6c-.1,0,.8,0,.8,0l.2-1.4h1.1l.2,1.4h1v-.5c0,0,0,0,0,0ZM8.7,18.9l.4-2.7h0l.4,2.7h-.8,0Z"/>
      <path class="st11" d="M28.2,15.2v-.3h-1.3v.3c0,0-.7,3.8-.7,3.8l-.4,2.1h1l.2-1.4h1.1l.2,1.4h1l-1-6h0ZM27.2,18.9l.4-2.7h0l.4,2.7h-.8Z"/>
      <path class="st9" d="M25.6,19.5v.3c0,.4-.1.8-.4,1-.3.3-.6.4-1.1.4-.8,0-1.3-.4-1.5-1.1,0,0,0-.2,0-.3v-.4h.9c0,0,0,.3,0,.3,0,.4.2.6.5.6s.5-.2.5-.6v-.2c0-.4-.2-.7-.8-1.3-.8-.7-1.1-1.2-1.1-1.8,0,0,0-.1,0-.2v-.2h0c0-.4.1-.8.3-1,.2-.3.6-.4,1.1-.4s.8.2,1.1.4c.2.2.3.6.3,1v.2h-.9c0,0,0-.1,0-.1,0-.4-.2-.6-.5-.6s-.5.2-.5.5h0c0,.5.2.8.8,1.3.6.6,1,1,1.1,1.5,0,.2,0,.3,0,.5h0Z"/>
      <path class="st10" d="M22,16.1c0-.6-.3-1-.8-1.2-.2-.1-.5-.2-.8-.2-.5,0-.9.2-1.1.4-.3.3-.4.7-.4,1.2v3.3h0c0,1,.6,1.6,1.5,1.6s1.4-.4,1.5-1.2c0-.1,0-.3,0-.4v-3.3c0,0,0-.1,0-.2h0ZM21.1,19.6c0,.5-.2.7-.6.7s-.6-.3-.6-.7v-3.3c0-.5.2-.7.6-.7s.6.3.6.7v3.3Z"/>
      <path class="st7" d="M18.3,19.1c0-.7-.3-1.1-.8-1.2h0c.5-.2.7-.6.7-1.3h0c0-.7-.2-1.1-.5-1.4-.3-.2-.6-.3-1.1-.3h-1.3v6.3h1.4c1,0,1.5-.5,1.6-1.4h0v-.4c0,0,0-.2,0-.3h0ZM16.2,15.7h.3c.4,0,.6.2.6.8v.2c0,.5-.2.8-.7.8h-.3v-1.7ZM17.3,19.5c0,.5-.2.8-.7.8h-.4v-1.9h.4c.5,0,.7.3.7.8v.3h0Z"/>
      <path class="st8" d="M13.7,18.3c.4-.3.7-.7.7-1.4v-.4c0-.6-.2-1-.5-1.3-.3-.2-.6-.3-1.1-.3h-1.4v6.3h1v-2.7h.4l.8,2.7h1l-.9-2.9h0ZM13.4,16.8c0,.5-.2.8-.7.8h-.4v-1.9h.4c.5,0,.7.2.7.8v.3Z"/>
      <path class="st3" d="M6.2,17.9h0c.5-.2.7-.6.7-1.3h0c0-.9-.3-1.4-.8-1.6-.2,0-.4-.1-.7-.1h-1.3v6.3h1.4c1,0,1.6-.6,1.6-1.6v-.2c0-.8-.3-1.3-.8-1.5h0ZM5,15.7h.3c.4,0,.6.2.6.8v.2c0,.5-.2.8-.6.8h-.3v-1.7h0ZM6.1,19.5c0,.5-.2.8-.7.8h-.4v-1.9h.4c.5,0,.7.3.7.8,0,0,0,.3,0,.3Z"/>
    </g>
    <g>
      <path class="st4" d="M17.5,22.2v-.4c.1,0-1.9,0-1.9,0v.4c-.1,0,.7,0,.7,0-.3.9-.6,1.8-.9,2.7h.4c.3-.9.6-1.8.9-2.7h.8Z"/>
      <path class="st0" d="M22,24.2s0,0,0,0c0-.2.3-.6.3-.8,0-.2-.1-.3-.3-.3s-.4.1-.6.4c0-.2,0-.4-.3-.4s-.4.1-.6.4v-.3c.1,0-.3,0-.3,0,0,.2-.1.4-.2.6-.2.3-.4.6-.5.6s0-.3.3-1.2h-.4v.2c-.1-.1-.3-.2-.4-.2-.4,0-.7.4-.8.9-.2.3-.4.4-.7.4s-.3,0-.4-.3c.4,0,.9-.1.9-.6s-.2-.5-.5-.5c-.5,0-.8.5-.8,1s.3.6.7.6.6-.1.8-.3c0,.2.2.3.4.3s.4-.1.4-.3c0,.1.1.3.3.3s.3,0,.4-.2c0,0,0,0,0,.1h.4c.1-.5.4-1.2.7-1.2s0,0,0,.1c0,.1,0,.3-.4,1.1h.4c.1-.4.4-1.2.7-1.2s0,0,0,.1c0,.2-.3.5-.3.8s.1.3.4.3.6-.3.8-.5l-.2-.2c-.1.2-.3.4-.4.4h0ZM17.5,23.2c0,0,.1,0,.1.2,0,.2-.3.3-.5.3,0-.3.2-.5.4-.5ZM18.7,24.2c-.1,0-.2-.1-.2-.2,0-.3.2-.7.4-.7s.2,0,.2.1c-.2.5-.3.8-.5.8h0Z"/>
      <path class="st1" d="M24,21.8c-.3,1-.7,2.1-1,3h.4c.3-1,.7-2.1,1-3h-.4Z"/>
      <path class="st2" d="M28.8,23c-.1.4-.3,1-.6,1s0-.6.1-1h-.4c0,.2-.2.4-.2.6-.2.3-.4.6-.5.6s0-.1,0-.5c.1-.3.3-.9.6-1.6h-.4c-.2.5-.4,1.1-.5,1.5,0,0,0,0,0,.1-.2.3-.4.5-.5.5s0-.3.3-1.2h-.4v.2c-.1-.1-.3-.2-.4-.2-.4,0-.7.4-.8.9-.2.2-.3.4-.4.4-.2,0-.2-.2,0-.9h.3v-.3c.1,0-.2,0-.2,0,0-.2.1-.3.2-.5h-.4l-.2.5h-.2v.3c-.1,0,0,0,0,0-.2.7-.3,1.3.2,1.3s.4-.2.5-.3c0,.2.2.3.4.3s.4-.1.4-.3c0,.1.1.3.3.3s.4-.1.5-.3c0,.2.1.3.3.3s.5-.2.6-.5c0,.1.2.2.4.2s.3,0,.4-.2v.3c-.6,0-1.3.2-1.3.7s.2.4.5.4.8-.3.9-.9c.2-.6.4-1.1.6-1.7h-.4ZM25.7,24.2c-.1,0-.2-.1-.2-.2,0-.3.2-.7.4-.7s.2,0,.2.1c-.2.5-.3.8-.5.8h0ZM27.8,25.2c0,0-.1,0-.1-.1,0-.2.4-.3.7-.4-.2.3-.3.5-.5.5h0Z"/>
    </g>
  </g>
</svg>