<?xml version="1.0" encoding="UTF-8"?>
<svg id="Livello_1" xmlns="http://www.w3.org/2000/svg" xmlns:xlink="http://www.w3.org/1999/xlink" version="1.1" viewBox="0 0 500 500">
  <!-- Generator: Adobe Illustrator 29.6.1, SVG Export Plug-In . SVG Version: 2.1.1 Build 9)  -->
  <defs>
    <style>
      .st0, .st1 {
        fill: none;
      }

      .st2 {
        fill: #c5e0eb;
      }

      .st2, .st3, .st4, .st5 {
        opacity: .8;
      }

      .st6 {
        fill: #dceaf2;
      }

      .st3 {
        fill: #597ca4;
      }

      .st7 {
        fill: #e1e7ef;
      }

      .st4 {
        fill: #a6d1e1;
      }

      .st8 {
        fill: #e5eff5;
      }

      .st9 {
        fill: #415b82;
        stroke: #fff;
        stroke-linecap: round;
        stroke-linejoin: round;
        stroke-width: 2.8px;
      }

      .st10 {
        fill: #dce4ec;
      }

      .st11 {
        fill: #d7e7f0;
      }

      .st12 {
        fill: #dfe6ee;
      }

      .st13 {
        fill: #f4f8fb;
      }

      .st5 {
        fill: #81b2cf;
      }

      .st14 {
        clip-path: url(#clippath-1);
      }

      .st15 {
        clip-path: url(#clippath-2);
      }

      .st16 {
        fill: #d3e4ee;
      }

      .st17 {
        fill: #ebf3f7;
      }

      .st18 {
        fill: #f2f5f8;
      }

      .st1 {
        stroke: #405d81;
        stroke-miterlimit: 10;
        stroke-width: .7px;
      }

      .st19 {
        fill: #fff;
      }

      .st20 {
        fill: #deebf2;
      }

      .st21 {
        fill: #e8edf3;
      }

      .st22 {
        opacity: .9;
      }

      .st23 {
        opacity: .8;
      }

      .st24 {
        opacity: .5;
      }

      .st25 {
        fill: #d0e2ed;
      }

      .st26 {
        fill: #ebf0f4;
      }

      .st27 {
        fill: #f1f6fa;
      }

      .st28 {
        fill: #e8f1f6;
      }

      .st29 {
        clip-path: url(#clippath);
      }

      .st30 {
        fill: #cadfeb;
      }
    </style>
    <clipPath id="clippath">
      <path class="st0" d="M257.2,500c-.8,0-1.7,0-2.5,0,0,0-1.6,0-1.9,0s-1,0-1.5,0h-3.3c0-.1-.3-.2-.3-.2-7.2-.3-14.5-.8-21.7-1.7h-1c-.8-.2-1.6-.3-2.5-.4-.6,0-1.2-.2-1.8-.3,0,0-1.3-.2-1.6-.2-1.1-.2-2.1-.3-3.2-.5h0c-8.7-1.4-17.4-3.2-25.7-5.5-14.1-3.9-28-9-41.4-15.2-.6,0-1.1-.2-1.7-.4-1.4-.5-2.6-1-3.8-1.5l-4.2-1.8-3.9-1.7c-1-.4-1.9-.9-2.8-1.3-.4-.2-.8-.4-1.2-.6l-1.5-.8c-2.1-1-4.1-2.1-6.2-3.1h-.1c0,0-8-4.5-8-4.5l-2.5-2c-.5-.4-1.1-.9-1.6-1.3l-.6-.5-3.9-3.5-2-1.8c-.6-.6-1.4-1.3-2.1-2l-3.6-3.6-1.7-1.7-1-.8c-.4-.3-.7-.6-1.1-.9l-6.9-5.9c-5.9-5.2-11.7-10.9-17.1-16.7l-1.5-1.6-1.1-1.3c-1.2-1.3-2.3-2.6-3.4-3.9l.8,11.2-12.4-17.9c0-.1-.2-.3-.4-.6-.5-.7-1.4-1.9-2.4-3.4v-.2c-.1,0-5-7.7-5-7.7-.2-.3-.3-.5-.5-.7-.3-.5-.7-1.1-1-1.6l-1.6-2.8-2.3-4c-.3-.5-.5-.9-.8-1.4-.5-.9-1.1-1.9-1.6-2.9l-1.7-3.3-2.7-5.4c-.5-.9-.9-1.8-1.2-2.6l-4-9h0c-3.3-8.3-6.3-16.5-8.7-24.4v-.4c-.3-.4-.4-.7-.5-1.1l-2.4-6.8c-.5-1.3-.8-2.5-1.2-3.8l-2.1-6.9c0-.3-.2-.7-.3-1-.2-.8-.5-1.7-.7-2.7l-1.7-6.9-.9-3.6-.7-3.7-1.4-7c-.3-1.4-.5-2.6-.6-3.9l-.5-3.6c-.1-.8-.2-1.6-.3-2.4-.2-1.6-.5-3.2-.7-4.9l-.7-7.3-.3-3.6c0-.9-.1-1.8-.2-2.6,0-.4,0-.8,0-1.2l-.3-7.2c-.1-2-.1-3.9,0-5.8v-1.3c0-1.9,0-3.5,0-5.1v-2.7s0,0,0,0c0-1.5.1-2.9.2-4.4,0-1.3.1-2.6.2-3.9l.3-4.6.2-2,1.3-10.5,1.4-8.3.7-4.2.9-4.1c.2-1,.4-1.9.6-2.8.4-1.7.7-3.5,1.2-5.3v-.2s2.7-10,2.7-10c.1-.6.4-1.4.7-2.3l2.7-8.6c.4-1.2.7-2.4,1.2-3.6l2.9-7.8.8-2.1,3.1-7.3c.9-2.2,1.9-4.4,3-6.6l3.7-7.7h0c.9-1.9,1.9-3.7,2.9-5.5l1.2-2.2c.3-.5.5-.9.7-1.3.5-.9.9-1.7,1.5-2.7l2.2-3.7,2.5-4.2c.7-1.1,1.4-2.2,2.2-3.4l4.7-7c.8-1.3,1.7-2.4,2.5-3.5l2.7-3.6,2.6-3.4c.7-.9,1.3-1.7,2-2.4.3-.4.6-.7.9-1.1l1.4-1.7c1.3-1.6,2.7-3.3,4.2-4.9v-.2c.9-.8,1.7-1.7,2.5-2.5,3.1-3.3,6.3-6.8,9.7-10l3.6-3.4c.4-.4.8-.7,1.1-1.1l1.7-1.5,6.4-5.5c.3-.3.6-.5.9-.8l.3-.3h.1c.2-.2.4-.4.5-.5l1.6-1.3,3.3-2.6,3.5-2.7,3.6-2.5,3.8-2.6,1.9-1.3c.3-.2.7-.4,1-.7h.2c0-.1.2-.3.2-.3l1-.6c.4-.2.8-.5,1.2-.7l7.1-4.3h0c1.9-1.1,3.7-2.1,5.5-3.1l1.7-.9,3.7-1.9h0c.9-.5,1.8-.9,2.7-1.3l1-.5,7.4-3.4h.1c2.6-1.1,5.2-2.1,7.4-3l3.8-1.5,3.9-1.3,7.6-2.4h.1c2.2-.6,4.4-1.2,6.6-1.7l1.1-.3h0c0,0,.7,0,.7,0,2.2-.5,4.5-1.1,6.9-1.5h.1c1.9-.3,3.8-.5,5.6-.7.9,0,1.8-.2,2.7-.2,1,0,1.8-.1,2.6-.1s.2,0,.4,0c3.3,0,6.6.2,9.8.5h.2c.6,0,1.2.1,1.8.2.1,0,1.6-.2,1.6-.2h.8c3.1.7,6.3,1.4,9.9,2.4v.5s1.4.4,1.4.4l2.1.7c2.7.9,5.1,1.8,7.3,2.6h1.3c0-.1,4.7,1.8,4.7,1.8,6.1-.5,12.2-.7,18.1-.7s.3,0,.5,0c-.3-.9-.5-1.9-.7-2.8-.8-3.5-1.4-6.2-4.1-9l-10.2-10.8,14.8.8c20.5,1.1,40.8,4.5,60.3,10.2l1.9.5,9,2.9c.4.1.7.2,1.1.3.8.3,1.8.6,2.8,1l6.9,2.6c.4.2.8.3,1.2.5.8.3,1.6.6,2.4.9l3.5,1.5,6.9,3h0c1.5.8,3,1.5,4.5,2.2.7.4,1.4.7,2.2,1.1,3.4,1.6,6.7,3.4,9.8,5.2,1.2.7,2.4,1.3,3.6,2,1.2.6,2.3,1.3,3.4,2l8.1,5c.4.2.7.5,1.1.7l.5.3c1,.7,2,1.4,3,2.1,3.1,2.1,6.3,4.3,9.4,6.7.7.5,1.3,1,2,1.5,1.3,1,2.6,2,4,3,0,0,6.4,5.3,6.8,5.6.7.5,1.3,1.1,2,1.6l2.9,2.6,5.6,5,5.3,5.3,2.6,2.6c.7.7,1.3,1.3,1.8,2,.3.3.5.6.8.9l5,5.4c.7.7,1.3,1.5,1.9,2.1.2.3.5.6.7.8l2.4,2.8c2.2,2.6,4.3,5.3,6.1,7.6l2.3,2.6c1.9,2.1,3.6,4.2,5.2,6.3.4.5.8,1.1,1.3,1.6,8.5,10.9,15.8,22.5,21.9,34.4,6.3,12.5,11.2,25.6,14.8,38.9.2.7.4,1.4.6,2.1.7,2.7,1.4,5.4,1.9,8.3l1,5,.2,1.1c.3,1.4.5,2.8.7,4.4.5,4,1,7.2,1.4,10.3h0c0,.1,0,.3,0,.3.3,3.5.5,7,.7,10.5h0c.4,9.5.3,18-.2,26,0,1,0,2,0,3-.2,17.8-2.4,35.6-6.3,52.9h0c0,.1-1,3.6-1,3.6l-.5,1.7-.6,1.8-2.9,9.4-4,11.3c-.2.5-.4,1-.6,1.5l-3.8,9.3c-.4.9-.8,1.9-1.3,2.8-.2.5-2.8,6.2-2.8,6.2-.5,1.2-1.1,2.4-1.8,3.7l-4.2,8c-1.1,2-2.3,3.9-3.4,5.8-.4.7-.9,1.4-1.3,2.1-1.5,2.5-3.1,4.9-4.7,7.2l-.6.8-2.7,3.9c-.1.2-.2.3-.3.5l-4.6,7.4c-.2.3-.4.6-.6.9-.3.6-.7,1.2-1.2,1.8l.8,1-4.3,5.5-2.2,2.8c-.6.7-1.1,1.4-1.7,2-.2.3-.5.6-.7.9l-.2.2-.2.2c-.5.5-1,.9-1.6,1.4l-.4.5c-2.3,3.2-4.9,6.1-7.3,9-.5.6-1.1,1.2-1.6,1.9-1.4,1.7-2.8,3.2-4.2,4.6l-5.5,5.8h0c-1.2,1.2-2.4,2.4-3.6,3.5l-1.4,1.4-2.9,2.8c-.3.3-.7.6-1,.9l-1.3,1.2c-14.2,12.7-29.9,23.6-46.5,32.3-11,5.7-22.7,10.5-34.8,14.2h-.4c-.8.3-1.5.6-2.3.8-6.1,1.8-12.3,3.4-18.5,4.6h-.6c0,.1-1.7.5-1.7.5-.6.1-1.3.2-1.9.3-3.4.6-6.8,1.1-10.2,1.6h-.5c0,0-.7.1-.7.1-3.8.5-7.6.9-11.4,1.2h-.7c0,0-.5,0-.5,0-3.2.2-6.6.4-9.9.5-1,0-2.3.1-3.6.1h-.4c-1.7,0-3.5,0-5.2,0Z"/>
    </clipPath>
    <clipPath id="clippath-1">
      <path class="st0" d="M506.9,385.3c-51.1,6-58.9,11.1-149.2-2.1-96.3-14.2-129.3-38.2-208.8-48.5-58.7-7.6-149.3-8.6-275.7,30V-49.6H499.3l7.6,434.9Z"/>
    </clipPath>
    <clipPath id="clippath-2">
      <path class="st0" d="M257.2,500c-.8,0-1.7,0-2.5,0,0,0-1.6,0-1.9,0s-1,0-1.5,0h-3.3c0-.1-.3-.2-.3-.2-7.2-.3-14.5-.8-21.7-1.7h-1c-.8-.2-1.6-.3-2.5-.4-.6,0-1.2-.2-1.8-.3,0,0-1.3-.2-1.6-.2-1.1-.2-2.1-.3-3.2-.5h0c-8.7-1.4-17.4-3.2-25.7-5.5-14.1-3.9-28-9-41.4-15.2-.6,0-1.1-.2-1.7-.4-1.4-.5-2.6-1-3.8-1.5l-4.2-1.8-3.9-1.7c-1-.4-1.9-.9-2.8-1.3-.4-.2-.8-.4-1.2-.6l-1.5-.8c-2.1-1-4.1-2.1-6.2-3.1h-.1c0,0-8-4.5-8-4.5l-2.5-2c-.5-.4-1.1-.9-1.6-1.3l-.6-.5-3.9-3.5-2-1.8c-.6-.6-1.4-1.3-2.1-2l-3.6-3.6-1.7-1.7-1-.8c-.4-.3-.7-.6-1.1-.9l-6.9-5.9c-5.9-5.2-11.7-10.9-17.1-16.7l-1.5-1.6-1.1-1.3c-1.2-1.3-2.3-2.6-3.4-3.9l.8,11.2-12.4-17.9c0-.1-.2-.3-.4-.6-.5-.7-1.4-1.9-2.4-3.4v-.2c-.1,0-5-7.7-5-7.7-.2-.3-.3-.5-.5-.7-.3-.5-.7-1.1-1-1.6l-1.6-2.8-2.3-4c-.3-.5-.5-.9-.8-1.4-.5-.9-1.1-1.9-1.6-2.9l-1.7-3.3-2.7-5.4c-.5-.9-.9-1.8-1.2-2.6l-4-9h0c-3.3-8.3-6.3-16.5-8.7-24.4v-.4c-.3-.4-.4-.7-.5-1.1l-2.4-6.8c-.5-1.3-.8-2.5-1.2-3.8l-2.1-6.9c0-.3-.2-.7-.3-1-.2-.8-.5-1.7-.7-2.7l-1.7-6.9-.9-3.6-.7-3.7-1.4-7c-.3-1.4-.5-2.6-.6-3.9l-.5-3.6c-.1-.8-.2-1.6-.3-2.4-.2-1.6-.5-3.2-.7-4.9l-.7-7.3-.3-3.6c0-.9-.1-1.8-.2-2.6,0-.4,0-.8,0-1.2l-.3-7.2c-.1-2-.1-3.9,0-5.8v-1.3c0-1.9,0-3.5,0-5.1v-2.7s0,0,0,0c0-1.5.1-2.9.2-4.4,0-1.3.1-2.6.2-3.9l.3-4.6.2-2,1.3-10.5,1.4-8.3.7-4.2.9-4.1c.2-1,.4-1.9.6-2.8.4-1.7.7-3.5,1.2-5.3v-.2s2.7-10,2.7-10c.1-.6.4-1.4.7-2.3l2.7-8.6c.4-1.2.7-2.4,1.2-3.6l2.9-7.8.8-2.1,3.1-7.3c.9-2.2,1.9-4.4,3-6.6l3.7-7.7h0c.9-1.9,1.9-3.7,2.9-5.5l1.2-2.2c.3-.5.5-.9.7-1.3.5-.9.9-1.7,1.5-2.7l2.2-3.7,2.5-4.2c.7-1.1,1.4-2.2,2.2-3.4l4.7-7c.8-1.3,1.7-2.4,2.5-3.5l2.7-3.6,2.6-3.4c.7-.9,1.3-1.7,2-2.4.3-.4.6-.7.9-1.1l1.4-1.7c1.3-1.6,2.7-3.3,4.2-4.9v-.2c.9-.8,1.7-1.7,2.5-2.5,3.1-3.3,6.3-6.8,9.7-10l3.6-3.4c.4-.4.8-.7,1.1-1.1l1.7-1.5,6.4-5.5c.3-.3.6-.5.9-.8l.3-.3h.1c.2-.2.4-.4.5-.5l1.6-1.3,3.3-2.6,3.5-2.7,3.6-2.5,3.8-2.6,1.9-1.3c.3-.2.7-.4,1-.7h.2c0-.1.2-.3.2-.3l1-.6c.4-.2.8-.5,1.2-.7l7.1-4.3h0c1.9-1.1,3.7-2.1,5.5-3.1l1.7-.9,3.7-1.9h0c.9-.5,1.8-.9,2.7-1.3l1-.5,7.4-3.4h.1c2.6-1.1,5.2-2.1,7.4-3l3.8-1.5,3.9-1.3,7.6-2.4h.1c2.2-.6,4.4-1.2,6.6-1.7l1.1-.3h0c0,0,.7,0,.7,0,2.2-.5,4.5-1.1,6.9-1.5h.1c1.9-.3,3.8-.5,5.6-.7.9,0,1.8-.2,2.7-.2,1,0,1.8-.1,2.6-.1s.2,0,.4,0c3.3,0,6.6.2,9.8.5h.2c.6,0,1.2.1,1.8.2.1,0,1.6-.2,1.6-.2h.8c3.1.7,6.3,1.4,9.9,2.4v.5s1.4.4,1.4.4l2.1.7c2.7.9,5.1,1.8,7.3,2.6h1.3c0-.1,4.7,1.8,4.7,1.8,6.1-.5,12.2-.7,18.1-.7s.3,0,.5,0c-.3-.9-.5-1.9-.7-2.8-.8-3.5-1.4-6.2-4.1-9l-10.2-10.8,14.8.8c20.5,1.1,40.8,4.5,60.3,10.2l1.9.5,9,2.9c.4.1.7.2,1.1.3.8.3,1.8.6,2.8,1l6.9,2.6c.4.2.8.3,1.2.5.8.3,1.6.6,2.4.9l3.5,1.5,6.9,3h0c1.5.8,3,1.5,4.5,2.2.7.4,1.4.7,2.2,1.1,3.4,1.6,6.7,3.4,9.8,5.2,1.2.7,2.4,1.3,3.6,2,1.2.6,2.3,1.3,3.4,2l8.1,5c.4.2.7.5,1.1.7l.5.3c1,.7,2,1.4,3,2.1,3.1,2.1,6.3,4.3,9.4,6.7.7.5,1.3,1,2,1.5,1.3,1,2.6,2,4,3,0,0,6.4,5.3,6.8,5.6.7.5,1.3,1.1,2,1.6l2.9,2.6,5.6,5,5.3,5.3,2.6,2.6c.7.7,1.3,1.3,1.8,2,.3.3.5.6.8.9l5,5.4c.7.7,1.3,1.5,1.9,2.1.2.3.5.6.7.8l2.4,2.8c2.2,2.6,4.3,5.3,6.1,7.6l2.3,2.6c1.9,2.1,3.6,4.2,5.2,6.3.4.5.8,1.1,1.3,1.6,8.5,10.9,15.8,22.5,21.9,34.4,6.3,12.5,11.2,25.6,14.8,38.9.2.7.4,1.4.6,2.1.7,2.7,1.4,5.4,1.9,8.3l1,5,.2,1.1c.3,1.4.5,2.8.7,4.4.5,4,1,7.2,1.4,10.3h0c0,.1,0,.3,0,.3.3,3.5.5,7,.7,10.5h0c.4,9.5.3,18-.2,26,0,1,0,2,0,3-.2,17.8-2.4,35.6-6.3,52.9h0c0,.1-1,3.6-1,3.6l-.5,1.7-.6,1.8-2.9,9.4-4,11.3c-.2.5-.4,1-.6,1.5l-3.8,9.3c-.4.9-.8,1.9-1.3,2.8-.2.5-2.8,6.2-2.8,6.2-.5,1.2-1.1,2.4-1.8,3.7l-4.2,8c-1.1,2-2.3,3.9-3.4,5.8-.4.7-.9,1.4-1.3,2.1-1.5,2.5-3.1,4.9-4.7,7.2l-.6.8-2.7,3.9c-.1.2-.2.3-.3.5l-4.6,7.4c-.2.3-.4.6-.6.9-.3.6-.7,1.2-1.2,1.8l.8,1-4.3,5.5-2.2,2.8c-.6.7-1.1,1.4-1.7,2-.2.3-.5.6-.7.9l-.2.2-.2.2c-.5.5-1,.9-1.6,1.4l-.4.5c-2.3,3.2-4.9,6.1-7.3,9-.5.6-1.1,1.2-1.6,1.9-1.4,1.7-2.8,3.2-4.2,4.6l-5.5,5.8h0c-1.2,1.2-2.4,2.4-3.6,3.5l-1.4,1.4-2.9,2.8c-.3.3-.7.6-1,.9l-1.3,1.2c-14.2,12.7-29.9,23.6-46.5,32.3-11,5.7-22.7,10.5-34.8,14.2h-.4c-.8.3-1.5.6-2.3.8-6.1,1.8-12.3,3.4-18.5,4.6h-.6c0,.1-1.7.5-1.7.5-.6.1-1.3.2-1.9.3-3.4.6-6.8,1.1-10.2,1.6h-.5c0,0-.7.1-.7.1-3.8.5-7.6.9-11.4,1.2h-.7c0,0-.5,0-.5,0-3.2.2-6.6.4-9.9.5-1,0-2.3.1-3.6.1h-.4c-1.7,0-3.5,0-5.2,0Z"/>
    </clipPath>
  </defs>
  <g class="st29">
    <g>
      <g class="st14">
        <g>
          <path class="st19" d="M489.8,226.7c-.2-3.5-.5-7-.7-10.4-.4-3.4-.9-6.9-1.4-10.3-.2-1.7-.6-3.4-.9-5.1-.3-1.7-.7-3.4-1-5.1-.6-3.4-1.6-6.7-2.4-10-3.5-13.2-8.4-25.8-14.4-37.8-6.1-11.9-13.2-23.1-21.3-33.5-2-2.6-4-5.2-6.2-7.6l-2.4-2.8c-1.9-2.6-3.9-5.1-6-7.5l-2.4-2.8c-.8-.9-1.6-1.9-2.4-2.8l-5-5.4c-.8-.9-1.6-1.8-2.5-2.7l-2.6-2.6-5.2-5.2-5.5-5-2.7-2.5c-.9-.8-1.9-1.6-2.8-2.4l-5.7-4.7c-1.9-1.5-3.9-3-5.9-4.5-3.9-3-8-5.7-12.1-8.5-.5-.3-1-.7-1.5-1l-1.6-1-3.2-1.9-3.2-1.9c-1.1-.7-2.1-1.3-3.2-1.9-4.3-2.4-8.6-4.9-13.1-7-2.2-1.1-4.4-2.2-6.7-3.3l-6.8-3-3.4-1.5c-1.1-.5-2.3-.9-3.5-1.3l-7-2.6c-1.2-.5-2.3-.8-3.5-1.2l-3.5-1.2-3.6-1.2-1.8-.6-1.8-.5c-19.1-5.5-39-8.9-59-10,5.1,5.4,5,10.7,6.7,15.9.7,2.1,1.6,4.1,3.2,6.1-3.3-.1-6.6-.2-9.9-.2-6.3,0-12.5.3-18.7.8-.1,0-.3,0-.4,0-1.6-.6-3.1-1.3-4.6-1.9-.4,0-.8,0-1.2.1-2.8-1.1-5.6-2.1-8.4-3-.7-.2-1.3-.4-2-.7-.7-.2-1.3-.4-2-.6,0,0-.2,0-.3,0,.4,0,.7-.2,1.1-.2-3-.8-6.1-1.5-9.3-2.1-.5,0-1.1,0-1.6.2,0,0-.2,0-.2,0-.7-.1-1.4-.2-2.2-.3-2.9-.3-6-.5-9.2-.5-.8,0-1.6,0-2.5,0-.8,0-1.7.1-2.5.2-1.7.2-3.5.4-5.3.6-2.6.4-5.1,1.1-7.7,1.7,0,0-.1,0-.2,0,.3,0,.5-.2.8-.3-2.5.6-5,1.2-7.5,1.9-2.5.8-4.9,1.6-7.4,2.4-1.2.4-2.5.8-3.7,1.2-1.2.5-2.4.9-3.7,1.4-2.5,1-4.9,1.9-7.4,2.9-2.4,1.1-4.8,2.2-7.2,3.3-1.2.6-2.4,1.1-3.6,1.7-1.2.6-2.4,1.3-3.5,1.9-2.4,1.3-4.7,2.5-7.1,3.8-2.3,1.4-4.6,2.8-6.9,4.2-.7.4-1.4.9-2.1,1.3,0,0,0,0-.1,0,0,0-.1,0-.2.1-.4.2-.7.4-1,.7l-1.9,1.3c-1.3.9-2.5,1.7-3.8,2.6l-2.4,1.7c0,0-.2.1-.3.2l-.7.5-3.3,2.6-3.3,2.6-1.7,1.3c-.2.2-.4.3-.6.5h0s0,0,0,0c-.3.3-.6.5-1,.8-2.1,1.8-4.3,3.7-6.4,5.5l-1.6,1.4c-.5.5-1,1-1.5,1.5l-3.1,2.9c-4.2,3.9-7.9,8.1-11.8,12.3-1.9,2.1-3.7,4.3-5.5,6.5-.9,1.1-1.8,2.2-2.7,3.3l-2.6,3.4-2.6,3.4c-.9,1.1-1.7,2.3-2.5,3.5l-4.8,7.1c-.8,1.2-1.5,2.4-2.3,3.6l-2.2,3.6-2.2,3.6c-.7,1.2-1.4,2.5-2.1,3.7-1.3,2.5-2.7,5-4,7.5-1.2,2.5-2.5,5.1-3.7,7.6-1.3,2.5-2.3,5.1-3.4,7.7l-1.6,3.9-.8,1.9-.7,2c-1,2.6-1.9,5.3-2.9,7.9-.5,1.3-.9,2.6-1.3,4l-1.3,4c-.4,1.3-.8,2.7-1.2,4-.2.7-.4,1.3-.6,2l-.5,2c-.7,2.7-1.4,5.4-2.1,8-.6,2.7-1.2,5.4-1.7,8.1-.3,1.3-.6,2.7-.9,4-.2,1.3-.5,2.7-.7,4-.3,1.6-.5,3.1-.8,4.6l-.4,2.3-.2,1.2v1.2c-.5,3.1-.9,6.2-1.3,9.3l-.2,1.8v1.8c-.1,0-.3,2.7-.3,2.7,0,1.3-.2,2.6-.2,3.8,0,1.4-.2,2.9-.2,4.3v2.7c0,1.7,0,3.3,0,5,0,2.2,0,4.5,0,6.7l.3,7.2c0,1.2,0,2.4.2,3.6l.3,3.6.7,7.2c.3,2.4.7,4.8,1,7.1l.5,3.6c.2,1.2.3,2.4.6,3.6l1.4,7.1.7,3.5.9,3.5,1.7,7c.3,1.2.7,2.3,1,3.5l1,3.4,1,3.4c.3,1.1.7,2.3,1.1,3.4l2.4,6.8c.2.6.4,1.1.6,1.7,2.8,9.2,5.9,17.3,8.5,23.9,1,2.3,1.9,4.4,2.8,6.3.4.9.8,1.8,1.2,2.7.4.8.7,1.6,1.1,2.3,1.4,2.8,2.4,4.7,2.7,5.4.5,1,1.1,2.1,1.7,3.3.6,1.3,1.5,2.6,2.3,4,.8,1.4,1.7,2.9,2.5,4.4.4.8.9,1.5,1.3,2.3.4.7.9,1.5,1.4,2.2,1.8,2.9,3.6,5.6,4.9,7.7,1.4,2.1,2.5,3.5,2.8,4-.2-3.1-1.4-7.6,2.3-4.1,1.1,1.2,2.2,2.4,3.3,3.6.5.6.9,1.2,1.4,1.7.5.6.9,1.2,1.4,1.8l.8.9c1.7,2.1,3.5,4.1,5.3,6.1l1.1,1.3c.5.5,1,1,1.5,1.6,5.3,5.7,10.9,11.2,16.7,16.3l5.4,4.7,1.3,1.2c.5.4.9.7,1.4,1.1l.8.6c.7.6,1.3,1.3,2,1.9,1.2,1.2,2.4,2.4,3.7,3.7.6.6,1.2,1.2,1.9,1.8l1.9,1.7c1.3,1.2,2.6,2.3,3.9,3.5.7.6,1.3,1.2,2,1.7l2.1,1.6c2.5,1.4,5,2.8,7.5,4.2,2.5,1.3,5.1,2.5,7.6,3.8,1.3.6,2.5,1.3,3.8,1.8,1.3.6,2.6,1.1,3.8,1.7,1.3.5,2.6,1.1,3.8,1.6,1.3.5,2.5,1.1,3.8,1.6.2,0,.6.1,1.2.1,13.3,6.3,27.2,11.4,41.4,15.3,8.3,2.2,16.6,4,25.1,5.3,0,0,0,0,.1,0,1.1.2,2.1.3,3.2.5.4,0,.8.1,1.2.2.7.1,1.4.2,2.1.3.8.1,1.6.2,2.4.3.3,0,.6,0,.9.1,7,.8,14.1,1.4,21.2,1.7.1,0,.2,0,.4,0h3.2c1.1.2,2.2.1,3.3.1,2.5,0,5.1,0,7.6,0,1.3,0,2.5,0,3.8-.1,3.3-.1,6.5-.3,9.8-.5h.5s.6,0,.6,0c3.8-.3,7.5-.7,11.3-1.1h.6c0,0,.4-.1.4-.1,3.4-.4,6.7-1,10.1-1.5.6,0,1.2-.2,1.8-.3l1.7-.3c.2,0,.4,0,.6-.1,6.1-1.2,12.1-2.7,18-4.5.7-.2,1.5-.4,2.2-.7.1,0,.2,0,.4-.1,11.7-3.6,23.1-8.3,33.8-13.8,16.5-8.6,31.7-19.2,45.4-31.5l1.3-1.1c.4-.4.8-.8,1.2-1.2l2.5-2.4c1.6-1.6,3.3-3.2,4.9-4.8,1.6-1.7,3.1-3.3,4.7-5,1.6-1.7,3.2-3.3,4.6-5.1,3-3.5,6-6.9,8.7-10.6.3-.4.6-.7.8-1.1.6-.5,1.2-1,1.8-1.5.8-.9,1.5-1.8,2.3-2.7l2.2-2.8c1.4-1.8,2.9-3.7,4.3-5.5-.9.5-1.6.7-2.1.8l.8-1.1c.7-.9,1.2-1.9,1.9-2.9,1.2-2,2.4-3.9,3.7-5.9l.9-1.5h0c.1-.3.3-.5.4-.7.9-1.3,1.8-2.6,2.7-3.9,1.7-2.5,3.5-5.1,5-7.7,1.5-2.6,3.1-5.2,4.6-7.8,1.4-2.6,2.8-5.3,4.2-7.9.7-1.3,1.3-2.7,1.9-4,.6-1.4,1.2-2.7,1.9-4.1.6-1.4,1.3-2.7,1.9-4.1.6-1.4,1.1-2.8,1.7-4.2.6-1.4,1.1-2.8,1.7-4.2.3-.7.6-1.4.9-2.1.3-.7.5-1.5.8-2.2,1-2.9,2.1-5.9,3.2-8.9,1-3.1,1.9-6.2,2.9-9.3.2-.5.4-1.1.5-1.6l.5-1.7c.3-1.1.6-2.2,1-3.4,3.9-16.9,6-34.3,6.2-51.6,0-1.1,0-2.1,0-3.2.6-8.2.6-16.7.2-25.4Z"/>
          <path class="st19" d="M257.2,500c-.8,0-1.7,0-2.5,0,0,0-1.6,0-1.9,0s-1,0-1.5,0h-3.3c0-.1-.3-.2-.3-.2-7.2-.3-14.5-.8-21.7-1.7h-1c-.8-.2-1.6-.3-2.5-.4-.6,0-1.2-.2-1.8-.3,0,0-1.3-.2-1.6-.2-1.1-.2-2.1-.3-3.2-.5h0c-8.7-1.4-17.4-3.2-25.7-5.5-14.1-3.9-28-9-41.4-15.2-.6,0-1.1-.2-1.7-.4-1.4-.5-2.6-1-3.8-1.5l-4.2-1.8-3.9-1.7c-1-.4-1.9-.9-2.8-1.3-.4-.2-.8-.4-1.2-.6l-1.5-.8c-2.1-1-4.1-2.1-6.2-3.1h-.1c0,0-8-4.5-8-4.5l-2.5-2c-.5-.4-1.1-.9-1.6-1.3l-.6-.5-3.9-3.5-2-1.8c-.6-.6-1.4-1.3-2.1-2l-3.6-3.6-1.7-1.7-1-.8c-.4-.3-.7-.6-1.1-.9l-6.9-5.9c-5.9-5.2-11.7-10.9-17.1-16.7l-1.5-1.6-1.1-1.3c-1.2-1.3-2.3-2.6-3.4-3.9l.8,11.2-12.4-17.9c0-.1-.2-.3-.4-.6-.5-.7-1.4-1.9-2.4-3.4v-.2c-.1,0-5-7.7-5-7.7-.2-.3-.3-.5-.5-.7-.3-.5-.7-1.1-1-1.6l-1.6-2.8-2.3-4c-.3-.5-.5-.9-.8-1.4-.5-.9-1.1-1.9-1.6-2.9l-1.7-3.3-2.7-5.4c-.5-.9-.9-1.8-1.2-2.6l-4-9h0c-3.3-8.3-6.3-16.5-8.7-24.4v-.4c-.3-.4-.4-.7-.5-1.1l-2.4-6.8c-.5-1.3-.8-2.5-1.2-3.8l-2.1-6.9c0-.3-.2-.7-.3-1-.2-.8-.5-1.7-.7-2.7l-1.7-6.9-.9-3.6-.7-3.7-1.4-7c-.3-1.4-.5-2.6-.6-3.9l-.5-3.6c-.1-.8-.2-1.6-.3-2.4-.2-1.6-.5-3.2-.7-4.9l-.7-7.3-.3-3.6c0-.9-.1-1.8-.2-2.6,0-.4,0-.8,0-1.2l-.3-7.2c-.1-2-.1-3.9,0-5.8v-1.3c0-1.9,0-3.5,0-5.1v-2.7s0,0,0,0c0-1.5.1-2.9.2-4.4,0-1.3.1-2.6.2-3.9l.3-4.6.2-2,1.3-10.5,1.4-8.3.7-4.2.9-4.1c.2-1,.4-1.9.6-2.8.4-1.7.7-3.5,1.2-5.3v-.2s2.7-10,2.7-10c.1-.6.4-1.4.7-2.3l2.7-8.6c.4-1.2.7-2.4,1.2-3.6l2.9-7.8.8-2.1,3.1-7.3c.9-2.2,1.9-4.4,3-6.6l3.7-7.7h0c.9-1.9,1.9-3.7,2.9-5.5l1.2-2.2c.3-.5.5-.9.7-1.3.5-.9.9-1.7,1.5-2.7l2.2-3.7,2.5-4.2c.7-1.1,1.4-2.2,2.2-3.4l4.7-7c.8-1.3,1.7-2.4,2.5-3.5l2.7-3.6,2.6-3.4c.7-.9,1.3-1.7,2-2.4.3-.4.6-.7.9-1.1l1.4-1.7c1.3-1.6,2.7-3.3,4.2-4.9v-.2c.9-.8,1.7-1.7,2.5-2.5,3.1-3.3,6.3-6.8,9.7-10l3.6-3.4c.4-.4.8-.7,1.1-1.1l1.7-1.5,6.4-5.5c.3-.3.6-.5.9-.8l.3-.3h.1c.2-.2.4-.4.5-.5l1.6-1.3,3.3-2.6,3.5-2.7,3.6-2.5,3.8-2.6,1.9-1.3c.3-.2.7-.4,1-.7h.2c0-.1.2-.3.2-.3l1-.6c.4-.2.8-.5,1.2-.7l7.1-4.3h0c1.9-1.1,3.7-2.1,5.5-3.1l1.7-.9,3.7-1.9h0c.9-.5,1.8-.9,2.7-1.3l1-.5,7.4-3.4h.1c2.6-1.1,5.2-2.1,7.4-3l3.8-1.5,3.9-1.3,7.6-2.4h.1c2.2-.6,4.4-1.2,6.6-1.7l1.1-.3h0c0,0,.7,0,.7,0,2.2-.5,4.5-1.1,6.9-1.5h.1c1.9-.3,3.8-.5,5.6-.7.9,0,1.8-.2,2.7-.2,1,0,1.8-.1,2.6-.1s.2,0,.4,0c3.3,0,6.6.2,9.8.5h.2c.6,0,1.2.1,1.8.2.1,0,1.6-.2,1.6-.2h.8c3.1.7,6.3,1.4,9.9,2.4v.5s1.4.4,1.4.4l2.1.7c2.7.9,5.1,1.8,7.3,2.6h1.3c0-.1,4.7,1.8,4.7,1.8,6.1-.5,12.2-.7,18.1-.7s.3,0,.5,0c-.3-.9-.5-1.9-.7-2.8-.8-3.5-1.4-6.2-4.1-9l-10.2-10.8,14.8.8c20.5,1.1,40.8,4.5,60.3,10.2l1.9.5,9,2.9c.4.1.7.2,1.1.3.8.3,1.8.6,2.8,1l6.9,2.6c.4.2.8.3,1.2.5.8.3,1.6.6,2.4.9l3.5,1.5,6.9,3h0c1.5.8,3,1.5,4.5,2.2.7.4,1.4.7,2.2,1.1,3.4,1.6,6.7,3.4,9.8,5.2,1.2.7,2.4,1.3,3.6,2,1.2.6,2.3,1.3,3.4,2l8.1,5c.4.2.7.5,1.1.7l.5.3c1,.7,2,1.4,3,2.1,3.1,2.1,6.3,4.3,9.4,6.7.7.5,1.3,1,2,1.5,1.3,1,2.6,2,4,3,0,0,6.4,5.3,6.8,5.6.7.5,1.3,1.1,2,1.6l2.9,2.6,5.6,5,5.3,5.3,2.6,2.6c.7.7,1.3,1.3,1.8,2,.3.3.5.6.8.9l5,5.4c.7.7,1.3,1.5,1.9,2.1.2.3.5.6.7.8l2.4,2.8c2.2,2.6,4.3,5.3,6.1,7.6l2.3,2.6c1.9,2.1,3.6,4.2,5.2,6.3.4.5.8,1.1,1.3,1.6,8.5,10.9,15.8,22.5,21.9,34.4,6.3,12.5,11.2,25.6,14.8,38.9.2.7.4,1.4.6,2.1.7,2.7,1.4,5.4,1.9,8.3l1,5,.2,1.1c.3,1.4.5,2.8.7,4.4.5,4,1,7.2,1.4,10.3h0c0,.1,0,.3,0,.3.3,3.5.5,7,.7,10.5h0c.4,9.5.3,18-.2,26,0,1,0,2,0,3-.2,17.8-2.4,35.6-6.3,52.9h0c0,.1-1,3.6-1,3.6l-.5,1.7-.6,1.8-2.9,9.4-4,11.3c-.2.5-.4,1-.6,1.5l-3.8,9.3c-.4.9-.8,1.9-1.3,2.8-.2.5-2.8,6.2-2.8,6.2-.5,1.2-1.1,2.4-1.8,3.7l-4.2,8c-1.1,2-2.3,3.9-3.4,5.8-.4.7-.9,1.4-1.3,2.1-1.5,2.5-3.1,4.9-4.7,7.2l-.6.8-2.7,3.9c-.1.2-.2.3-.3.5l-4.6,7.4c-.2.3-.4.6-.6.9-.3.6-.7,1.2-1.2,1.8l.8,1-4.3,5.5-2.2,2.8c-.6.7-1.1,1.4-1.7,2-.2.3-.5.6-.7.9l-.2.2-.2.2c-.5.5-1,.9-1.6,1.4l-.4.5c-2.3,3.2-4.9,6.1-7.3,9-.5.6-1.1,1.2-1.6,1.9-1.4,1.7-2.8,3.2-4.2,4.6l-5.5,5.8h0c-1.2,1.2-2.4,2.4-3.6,3.5l-1.4,1.4-2.9,2.8c-.3.3-.7.6-1,.9l-1.3,1.2c-14.2,12.7-29.9,23.6-46.5,32.3-11,5.7-22.7,10.5-34.8,14.2h-.4c-.8.3-1.5.6-2.3.8-6.1,1.8-12.3,3.4-18.5,4.6h-.6c0,.1-1.7.5-1.7.5-.6.1-1.3.2-1.9.3-3.4.6-6.8,1.1-10.2,1.6h-.5c0,0-.7.1-.7.1-3.8.5-7.6.9-11.4,1.2h-.7c0,0-.5,0-.5,0-3.2.2-6.6.4-9.9.5-1,0-2.3.1-3.6.1h-.4c-1.7,0-3.5,0-5.2,0Z"/>
          <g>
            <g class="st23">
              <g class="st23">
                <path class="st26" d="M67.8,134.2c-1.3,2.1-2.6,4.1-3.9,6.2-1.2,2.1-2.4,4.2-3.6,6.4-.6,1.1-1.2,2.1-1.8,3.2l-1.7,3.3-1.7,3.3c-.6,1.1-1.2,2.2-1.6,3.3l-3.1,6.7c-.3.6-.5,1.1-.8,1.7l-.7,1.7-1.4,3.4c-2,4.5-3.5,9.2-5.2,13.8-6.2,18.7-10.3,38.1-11.1,57.6-.6,9.7-.2,19.4.6,28.8.3,2.4.6,4.7.9,7.1.2,1.2.3,2.3.5,3.5.2,1.2.4,2.3.6,3.5.4,2.3.8,4.6,1.3,6.9.6,2.3,1.1,4.5,1.7,6.7.3,1.1.6,2.2.9,3.3.3,1.1.7,2.2,1,3.3.7,2.2,1.4,4.3,2.1,6.5.8,2.1,1.6,4.2,2.4,6.3.8,2.1,1.6,4.1,2.6,6.1,1,2,1.9,3.9,2.8,5.9.5,1,1,1.9,1.5,2.9.5.9,1.1,1.9,1.6,2.8,1.1,1.8,2.1,3.7,3.2,5.5,1.2,1.8,2.3,3.5,3.5,5.2l1.5,2.3c.5.8,1.1,1.5,1.6,2.2l3.3,4.5c1.1,1.5,2.3,2.9,3.5,4.3,1.2,1.4,2.4,2.8,3.6,4.3l-2.7-4.9-1.4-2.4c-.5-.8-.8-1.7-1.3-2.5-1.2-2.4-2.4-4.7-3.5-7.1-1.1-2.4-2.1-4.8-3.2-7.3l-.8-1.8-.7-1.9-1.4-3.7-1.5-3.7-1.3-3.8-1.3-3.8-.6-1.9-.6-1.9c-.7-2.6-1.5-5.1-2.2-7.7-.6-2.6-1.2-5.2-1.9-7.8l-.5-2c-.1-.7-.3-1.3-.4-2l-.7-4c-1.9-10.6-3.3-21.3-3.6-32.1-.2-2.7-.1-5.4-.1-8.1,0-2.7,0-5.4.1-8.1l.4-8.1.8-8.1c1.2-10.7,3.2-21.4,5.9-31.8,2.8-10.4,6.4-20.5,10.7-30.4,4.2-9.9,9.3-19.3,14.9-28.3,5.7-9,11.8-17.7,18.7-25.6,16.3-20.3,36.4-38.6,60.5-52.3,12-6.8,25-12.5,38.9-16.5,13.8-4,28.4-6.4,43.4-6.7,6.6,0,7.5-3.6,8-5.3-3-1-5.9-2.1-8.7-3.3-1.4-.6-2.7-1.1-4-1.6-1.3-.5-2.6-1-3.9-1.6-12.8,1.5-25.4,4.1-37.7,7.8-12.2,3.8-24.1,8.6-35.5,14.3-11.4,5.8-22.3,12.4-32.7,20-2.6,1.9-5.2,3.8-7.7,5.8-2.5,2-5,4.1-7.5,6.1-2.4,2.1-4.8,4.3-7.2,6.4-2.4,2.2-4.7,4.5-7,6.7-.4.4-.8.7-1.2,1.1l-1.1,1.2c-.7.8-1.4,1.6-2.1,2.5-1.4,1.7-2.8,3.3-4,5.1-1.2,1.8-2.4,3.6-3.5,5.4-.6.9-1.1,1.8-1.7,2.7-.5.9-1,1.8-1.5,2.7-1,1.8-1.9,3.5-2.8,5.2-.5.8-.9,1.7-1.3,2.5-.4.8-.8,1.6-1.2,2.4-1.5,3.1-3.1,5.7-4.4,7.8Z"/>
                <path class="st7" d="M230,28.6c-.3-.1-.7-.3-1-.4-1.3.1-2.6.3-3.9.4-1.3.1-2.6.3-3.8.5,1.4-.2,2.9-.2,4.3-.3,1.5,0,2.9-.2,4.4-.2Z"/>
                <path class="st21" d="M116.3,75.8c-12.9,10.8-24.7,22.3-35.5,34.6-.7,1.2-1.4,2.3-2.1,3.4-.6,1.2-1.3,2.3-1.9,3.4-.6,1.1-1.2,2.2-1.8,3.3-.6,1.1-1.2,2.1-1.6,3.2-1,2.1-2,4-3,5.8-.5.9-1,1.7-1.4,2.5-.4.8-.9,1.5-1.3,2.2-1.3,2.1-2.6,4.1-3.9,6.2-1.2,2.1-2.4,4.2-3.6,6.4-.6,1.1-1.2,2.1-1.8,3.2l-1.7,3.3-1.7,3.3c-.6,1.1-1.2,2.2-1.6,3.3l-3.1,6.7c-.3.6-.5,1.1-.8,1.7l-.7,1.7-1.4,3.4c-2,4.5-3.5,9.2-5.2,13.8-6.2,18.7-10.3,38.1-11.1,57.6-.6,9.7-.2,19.4.6,28.8.3,2.4.6,4.7.9,7.1.2,1.2.3,2.3.5,3.5.2,1.2.4,2.3.6,3.5.4,2.3.8,4.6,1.3,6.9.6,2.3,1.1,4.5,1.7,6.7.3,1.1.6,2.2.9,3.3.3,1.1.7,2.2,1,3.3.7,2.2,1.4,4.3,2.1,6.5.8,2.1,1.6,4.2,2.4,6.3.8,2.1,1.6,4.1,2.6,6.1,1,2,1.9,3.9,2.8,5.9.5,1,1,1.9,1.5,2.9.5.9,1.1,1.9,1.6,2.8,1.1,1.8,2.1,3.7,3.2,5.5,1.2,1.8,2.3,3.5,3.5,5.2,4.1,6.1,8.6,11.9,13.4,17.4-1-1.8-2-3.5-3-5.3-.5-.9-1-1.7-1.5-2.6l-1.3-2.7c-13.2-26.1-21.5-55.2-23.4-85-.3-1.6-.6-3.2-.9-4.8-1.9-8.3-1.7-16.5-.9-24.5,0-1,.2-2,.4-3l.4-3,.9-5.9c.4-2,.8-3.9,1.1-5.9.4-2,.6-3.9,1.1-5.9,1.3-11.3,4-22,7.3-32.2,1.6-5.1,3.7-10,5.6-14.9,1.1-2.4,2.2-4.8,3.3-7.2.5-1.2,1.2-2.4,1.8-3.5l1.8-3.5c.6-1.2,1.2-2.3,1.8-3.5l2-3.4c1.3-2.3,2.6-4.6,4.1-6.7,1.4-2.2,2.8-4.4,4.3-6.6,1.5-2.2,3.1-4.3,4.6-6.5,6.4-8.6,13.4-17.1,21.2-25.4,1.4-1.5,2.8-3,4.2-4.5.7-.8,1.4-1.5,2.1-2.3.7-.8,1.4-1.5,2.2-2.3.7-.8,1.4-1.6,2.2-2.4l1.1-1.2,1.2-1.1c1.5-1.5,3.1-3.1,4.7-4.7,6.5-6.1,13.7-12.3,22.4-16.9.7-.4,1.5-.9,2.2-1.3.7-.4,1.4-.8,2.2-1.2,1.5-.7,3-1.5,4.4-2.2,1.5-.7,2.9-1.5,4.4-2.1,1.5-.6,3-1.2,4.4-1.8,11.5-6,23.8-10.9,36.8-14.4,13-3.5,26.6-5.5,40.5-5.8,6.6,0,7.5-3.6,8-5.4-3.2-1.1-6.1-2.3-9-3.5-11.8.2-23.5,1.4-35.2,3.6-11.6,2.4-23.1,5.7-34.5,9.8-19.3,8.3-37.3,19.3-53.7,32.4.9-.3,1.9-.7,3.1-1.3Z"/>
                <path class="st7" d="M111.5,72.8c-2.4,1.8-3.7,6.1,1.7,4.3,16.5-13.1,34.5-24.1,53.7-32.4-2.4.9-4.7,1.8-7.1,2.7-2.3,1-4.7,2-7,3-1.2.5-2.4,1-3.5,1.5l-3.5,1.7-3.5,1.7c-1.2.5-2.3,1.1-3.5,1.7-2.3,1.2-4.6,2.4-6.9,3.6-1.2.6-2.3,1.3-3.4,1.9l-3.4,2c-1.1.6-2.3,1.3-3.4,1.9-1.1.7-2.2,1.4-3.4,2.1-2.2,1.4-4.6,2.8-6.8,4.2Z"/>
                <path class="st18" d="M106.9,60.9c-2.3,1.5-4.5,3.2-6.7,4.8-2.2,1.7-4.4,3.3-6.4,5.1-2.1,1.8-4.1,3.6-6.2,5.3-2,1.9-3.9,3.8-5.8,5.6-1,.9-1.9,1.9-2.8,2.8-.9,1-1.8,2-2.7,3-1.8,2-3.6,3.9-5.3,5.9-3.3,4.1-6.7,8.1-9.7,12.2-.8,1-1.5,2.1-2.3,3.1l-1.1,1.5-1.1,1.6c-1.4,2.1-2.8,4.2-4.3,6.3l-1.1,1.5-1,1.6c-.7,1.1-1.3,2.1-2,3.1-.7,1-1.3,2.1-2,3.1l-1,1.5-.9,1.6c-2.4,4.2-5,8.2-7.2,12.4-1.2,2-2.3,4.1-3.5,6.1-1.1,2-2.2,4.1-3.3,6l-1.7,3.1c-.6,1-1.1,2.1-1.6,3.2-1.1,2.1-2.2,4.2-3.3,6.4-.6,1-1.1,2.1-1.6,3.2-.5,1.1-1,2.1-1.5,3.2-1,2.1-2.1,4.2-3,6.3-3.8,8.5-7.5,16.8-10.7,24.9-.5,3.1-1.1,6.2-1.5,9.3-.4,3.1-.7,6.2-1.1,9.3l-.2,1.8v1.8c-.1,0-.3,3.6-.3,3.6-.1,2.4-.3,4.8-.4,7.2v7.2c0,2.4-.1,4.8,0,7.2l.3,7.2c0,1.2,0,2.4.2,3.6l.3,3.6.7,7.2c.3,2.4.7,4.8,1,7.1l.5,3.6c.2,1.2.3,2.4.6,3.6l1.4,7.1.7,3.5.9,3.5,1.7,7c.6,2.3,1.3,4.6,2,6.9l1,3.4c.3,1.1.7,2.3,1.1,3.4l2.4,6.8c.4,1.1.8,2.3,1.2,3.4l1.4,3.3c14.1,35.6,36.7,67.5,65.1,92.7,3.6,3.1,7.1,6.3,10.9,9.1,1.9,1.5,3.7,3,5.6,4.4l5.8,4.1,2.9,2.1,3,1.9,6,3.9c2,1.3,4.1,2.4,6.1,3.6l3.1,1.8c1,.6,2.1,1.2,3.1,1.7,16.7,9,34.4,16.1,52.8,21.1,18.3,4.9,37.2,7.7,56.2,8.4l3.6.2c1.2,0,2.4,0,3.6,0h7.1c2.4,0,4.7-.2,7.1-.3l7.1-.4,7.1-.7,3.6-.4,1.8-.2,1.8-.3,7.1-1.1c1.2-.2,2.4-.3,3.5-.6l3.5-.7c18.7-3.9,36.6-10.3,53.1-18.8,16.5-8.6,31.7-19.2,45.4-31.5,1.8-1.5,3.4-3.1,5-4.7,1.6-1.6,3.3-3.2,4.9-4.8l4.7-5c1.6-1.7,3.2-3.3,4.6-5.1,3-3.5,6-6.9,8.7-10.6,1.4-1.8,2.8-3.6,4.2-5.5,1.3-1.9,2.6-3.8,3.9-5.7,2.7-3.7,5-7.7,7.5-11.6l.9-1.5.9-1.5,1.7-3c1.1-2,2.3-4,3.4-6.1,1-2.1,2.1-4.2,3.1-6.2l1.6-3.1,1.4-3.2c.9-2.1,1.9-4.3,2.8-6.4.9-2.1,1.7-4.4,2.6-6.6,2.3-5.1,4.1-10.3,6.1-15.2.9-2.5,1.8-5,2.6-7.5.4-1.2.9-2.5,1.3-3.7.4-1.2.8-2.5,1.2-3.7.8-2.5,1.6-4.9,2.3-7.3.7-2.5,1.4-4.9,2-7.4.3-1.2.7-2.4,1-3.7.3-1.2.6-2.5.9-3.7.6-2.5,1.2-4.9,1.7-7.4,2-9.9,3.8-19.8,4.7-30.2,1.1-10.3,1.2-21,.8-32.2-.2-3.5-.5-7-.7-10.4-.4-3.4-.9-6.9-1.4-10.3-.2-1.7-.6-3.4-.9-5.1-.3-1.7-.7-3.4-1-5.1-.6-3.4-1.6-6.7-2.4-10-3.5-13.2-8.4-25.8-14.4-37.8-6.1-11.9-13.2-23.1-21.3-33.5-2-2.6-4-5.2-6.2-7.6l-3.2-3.7c-1.1-1.2-2.1-2.5-3.3-3.6l-6.8-7-7.2-6.6c-9.7-8.6-20.2-16.3-31.2-23.2l-4.2-2.5c-1.4-.8-2.7-1.7-4.2-2.4-2.8-1.5-5.7-3.1-8.6-4.6-2.9-1.4-5.8-2.8-8.8-4.2-1.4-.7-3-1.3-4.5-2-1.5-.6-3-1.3-4.5-1.9-12-4.9-24.5-8.9-37.4-11.9-12.8-3-26-5-39.5-5.9-3.6-.4-6.9-.1-9.8.1-2.9.3-5.4.7-7.6,1.5-4.3,1.4-7.3,3.2-9.1,5-3.7,3.7-2.8,7.2.6,7.3,10.6-.3,21.1.2,31.6,1.5,10.4,1.4,20.7,3.5,30.8,6.4,10.1,3,19.9,6.7,29.4,11,9.4,4.5,18.6,9.6,27.3,15.4,8.6,5.8,16.8,12.3,24.6,19.3,7.7,7,14.8,14.6,21.4,22.6,6.6,8,12.4,16.6,17.8,25.5l3.9,6.7c1.3,2.3,2.4,4.6,3.6,6.9l1.8,3.5,1.6,3.5,1.6,3.5c.5,1.2,1.1,2.4,1.5,3.6l2.8,7.2c.5,1.2.9,2.4,1.3,3.7l1.2,3.7,1.2,3.7,1,3.7c.7,2.5,1.4,5,2,7.5,2.5,10,4.1,20.3,5.3,30.6l.6,7.7c0,1.3.2,2.6.2,3.9v3.9c0,0,.2,3.9.2,3.9,0,1.3,0,2.6,0,3.9l-.2,7.8c0,.6,0,1.3,0,1.9l-.2,1.9-.3,3.9c-.2,2.6-.4,5.2-.7,7.7l-1,7.7-1.4,7.7c-2,10.2-4.5,20.3-8,30.2-3.4,9.8-7.4,19.6-12.3,28.9-1.1,2.4-2.4,4.7-3.7,7-1.3,2.3-2.5,4.6-4,6.8l-4.2,6.7-4.5,6.5c-1.4,2.2-3.1,4.3-4.7,6.4l-2.4,3.2c-.8,1.1-1.7,2.1-2.5,3.1-1.7,2-3.4,4.1-5.1,6.1-1.8,2-3.6,3.9-5.4,5.9-11.4,12.1-24.3,22.6-38,31.5l-2.6,1.7c-.9.6-1.8,1.1-2.6,1.6l-5.3,3.1-1.3.8-1.4.7-2.7,1.4-5.4,2.8-5.6,2.6c-1.9.8-3.7,1.8-5.6,2.5l-5.7,2.3c-.9.4-1.9.8-2.8,1.1l-2.9,1c-30.6,10.7-63.5,14.1-94.9,9.9-31.5-4.1-61.5-15.3-87.2-32.5-25.7-17.2-47.1-39.9-62.3-65.9-1.2-1.4-2.4-2.8-3.6-4.3-1.2-1.4-2.4-2.8-3.5-4.3l-3.3-4.5c-.5-.7-1.1-1.5-1.6-2.2l-1.5-2.3c-1.2-1.7-2.3-3.4-3.5-5.2-1.2-1.8-2.2-3.6-3.2-5.5-.5-.9-1.1-1.9-1.6-2.8-.5-.9-1.1-1.9-1.5-2.9-.9-2-1.9-3.9-2.8-5.9-1-2-1.8-4-2.6-6.1-.8-2.1-1.7-4.1-2.4-6.3-.7-2.1-1.4-4.3-2.1-6.5-.3-1.1-.7-2.2-1-3.3-.3-1.1-.6-2.2-.9-3.3-.6-2.2-1.1-4.5-1.7-6.7-.5-2.3-.9-4.6-1.3-6.9-.2-1.2-.4-2.3-.6-3.5-.2-1.2-.3-2.3-.5-3.5-.3-2.3-.6-4.7-.9-7.1-.8-9.5-1.2-19.1-.6-28.8.9-19.4,4.9-38.9,11.1-57.6,1.7-4.6,3.3-9.3,5.2-13.8l1.4-3.4.7-1.7c.2-.6.5-1.1.8-1.7l3.1-6.7c.5-1.1,1.1-2.2,1.6-3.3l1.7-3.3,1.7-3.3c.6-1.1,1.2-2.1,1.8-3.2,1.2-2.1,2.4-4.2,3.6-6.4,1.3-2.1,2.6-4.1,3.9-6.2,1.3-2.1,2.9-4.7,4.4-7.8.4-.8.8-1.6,1.2-2.4.4-.8.8-1.7,1.3-2.5.9-1.7,1.8-3.4,2.8-5.2.5-.9,1-1.8,1.5-2.7.5-.9,1.1-1.8,1.7-2.7,1.1-1.8,2.3-3.6,3.5-5.4,1.2-1.8,2.6-3.5,4-5.1.7-.8,1.4-1.7,2.1-2.5l1.1-1.2c.4-.4.8-.7,1.2-1.1,2.4-2.2,4.6-4.5,7-6.7,2.4-2.1,4.8-4.3,7.2-6.4,2.5-2,5-4.1,7.5-6.1,2.5-2,5.1-3.9,7.7-5.8,10.4-7.5,21.3-14.2,32.7-20,11.4-5.8,23.3-10.6,35.5-14.3,12.3-3.7,24.9-6.3,37.7-7.8-5.4-2.3-10.4-4.1-15.6-5.9l-2-.7c-.7-.2-1.3-.4-2-.6-1.3-.4-2.7-.7-4-1-1.4-.3-2.7-.6-4.2-.9-.7-.1-1.4-.3-2.2-.4-.7-.1-1.4-.2-2.2-.3-16.2,4.5-31.8,10.7-46.6,17.9-14.8,7.2-28.9,15.5-42.3,24.4Z"/>
                <path class="st12" d="M106.9,60.9c13.5-8.8,27.5-17.1,42.3-24.4,14.8-7.2,30.4-13.4,46.6-17.9-2.9-.3-6-.5-9.2-.5-3.2,0-6.7.4-10.3.9-2.6.4-5.1,1.1-7.7,1.7-2.6.7-5.2,1.2-7.7,2-5.1,1.6-10.3,3.1-15.3,5.2-1.3.5-2.5,1-3.8,1.5-1.3.5-2.5,1-3.8,1.6-2.5,1.1-5,2.3-7.5,3.4l-1.9.9-1.8,1-3.7,1.9c-2.4,1.3-4.9,2.6-7.3,4.1-2.4,1.4-4.7,2.9-7.1,4.4-2.3,1.5-4.6,3.1-6.9,4.7l-3.5,2.4-3.3,2.6c-2.2,1.7-4.5,3.4-6.6,5.2-8.7,7.2-16.8,15.2-24.4,23.6-1.9,2.1-3.7,4.3-5.5,6.5-.9,1.1-1.8,2.2-2.7,3.3l-2.6,3.4-2.6,3.4c-.9,1.1-1.7,2.3-2.5,3.5l-4.8,7.1c-.8,1.2-1.5,2.4-2.3,3.6l-2.2,3.6-2.2,3.6c-.7,1.2-1.4,2.5-2.1,3.7-1.3,2.5-2.7,5-4,7.5-1.2,2.5-2.5,5.1-3.7,7.6-4.7,10.2-8.9,20.7-12.1,31.4l-1.2,4c-.4,1.3-.7,2.7-1.1,4-.7,2.7-1.4,5.4-2.1,8-.6,2.7-1.2,5.4-1.7,8.1l-.9,4c-.2,1.3-.5,2.7-.7,4,3.2-8,6.9-16.4,10.7-24.9,1-2.1,2-4.2,3-6.3.5-1.1,1-2.1,1.5-3.2.5-1.1,1-2.1,1.6-3.2,1.1-2.1,2.2-4.2,3.3-6.4.5-1.1,1-2.1,1.6-3.2l1.7-3.1c1.1-2,2.2-4,3.3-6,1.2-2,2.3-4,3.5-6.1,2.2-4.1,4.8-8.2,7.2-12.4l.9-1.6,1-1.5c.7-1,1.3-2.1,2-3.1.7-1,1.3-2.1,2-3.1l1-1.6,1.1-1.5c1.4-2.1,2.8-4.2,4.3-6.3l1.1-1.6,1.1-1.5c.8-1,1.5-2.1,2.3-3.1,3-4.2,6.4-8.2,9.7-12.2,1.7-2,3.5-3.9,5.3-5.9.9-1,1.8-2,2.7-3,.9-1,1.9-1.9,2.8-2.8,1.9-1.9,3.8-3.8,5.8-5.6,2-1.8,4.1-3.6,6.2-5.3,2-1.8,4.3-3.4,6.4-5.1,2.2-1.6,4.4-3.4,6.7-4.8Z"/>
                <path class="st21" d="M106.9,60.9c12.9-8.5,26.2-16.4,40.3-23.4,14.1-7,28.8-13,44.2-17.6-5.4.7-10.7,2.1-16,3.3-2.6.7-5.3,1.5-7.9,2.3l-3.9,1.2-3.9,1.4c-13.2,4.9-26,11-38.2,18.3-12.1,7.3-23.6,15.7-34.3,24.9-21.4,18.5-39.7,40.5-54.7,64.4,14.6-26.8,34.2-50.7,57.5-70.3,23.3-19.6,50.2-35,79.2-45-2.5.6-5,1.2-7.5,1.9-2.5.8-4.9,1.6-7.4,2.4-1.2.4-2.5.8-3.7,1.2-1.2.5-2.4.9-3.7,1.4-2.4,1-4.9,1.9-7.4,2.9-2.4,1.1-4.8,2.2-7.2,3.3-1.2.6-2.4,1.1-3.6,1.7l-3.5,1.9c-2.4,1.3-4.7,2.5-7.1,3.8-2.3,1.4-4.6,2.8-6.9,4.2-1.1.7-2.3,1.4-3.4,2.2l-3.4,2.3c-2.2,1.6-4.5,3.1-6.7,4.7-4.3,3.3-8.7,6.6-12.8,10.3-4.2,3.5-8.1,7.4-12.1,11.2-2,1.9-3.8,4-5.7,6l-2.8,3c-.9,1-1.8,2.1-2.7,3.1l-5.3,6.3-5,6.6c-.8,1.1-1.7,2.2-2.5,3.3l-2.3,3.4c-1.5,2.3-3.1,4.5-4.6,6.9l-4.3,7.1-1.1,1.8-1,1.8-2,3.6c-2.7,4.8-5,9.8-7.4,14.7-1.2,2.5-2.2,5-3.2,7.5l-1.6,3.8c-.5,1.3-1,2.5-1.4,3.8-.9,2.6-1.9,5.1-2.8,7.6-.9,2.6-1.6,5.2-2.5,7.7l-1.2,3.9-1,3.9c-.7,2.6-1.4,5.2-2,7.8-.6,2.6-1.1,5.2-1.7,7.8l-.8,3.9-.7,3.9c.4-1,.8-2,1.2-3,.4-1,.9-2,1.3-3,.9-2,1.7-4.1,2.6-6.2.8-2.1,1.8-4.2,2.8-6.2.9-2.1,1.9-4.2,2.8-6.3,1-2.1,2-4.2,3-6.3.5-1.1,1-2.1,1.5-3.2.5-1.1,1-2.1,1.6-3.2,1.1-2.1,2.2-4.2,3.2-6.3.5-1.1,1-2.1,1.6-3.2l1.7-3.1c1.1-2,2.2-4,3.3-6,1.2-2,2.3-4,3.5-6.1,2.2-4.1,4.8-8.2,7.2-12.4l.9-1.6,1-1.5c.7-1,1.3-2.1,2-3.1.7-1,1.3-2.1,2-3.1l1-1.6,1.1-1.5c1.4-2.1,2.8-4.2,4.3-6.3l1.1-1.6,1.1-1.5c.8-1,1.5-2.1,2.3-3.1,3-4.2,6.4-8.2,9.7-12.2,1.7-2,3.5-3.9,5.3-5.9.9-1,1.8-2,2.7-3,.9-1,1.9-1.9,2.8-2.8,1.9-1.9,3.8-3.8,5.8-5.6,2-1.8,4.1-3.6,6.2-5.3,2-1.8,4.3-3.4,6.4-5.1,2.2-1.6,4.4-3.4,6.7-4.8Z"/>
                <path class="st10" d="M47.9,127.5c18.3-27.5,42.1-51,69.6-69.1,27.5-18.1,58.7-30.9,91.7-37.5-3-.8-6.1-1.5-9.3-2.1-.7,0-1.4.1-2.1.2l-2.1.3c-1.4.2-2.8.4-4.2.6-15.4,4.6-30.1,10.6-44.2,17.6-14.1,7-27.4,14.9-40.3,23.4-2.3,1.5-4.5,3.2-6.7,4.8-2.2,1.7-4.4,3.3-6.4,5.1-2.1,1.8-4.1,3.6-6.2,5.3-2,1.9-3.9,3.8-5.8,5.6-1,.9-1.9,1.9-2.8,2.8-.9,1-1.8,2-2.7,3-1.8,2-3.6,3.9-5.3,5.9-3.3,4.1-6.7,8.1-9.7,12.2-.8,1-1.5,2.1-2.3,3.1l-1.1,1.5-1.1,1.6c-1.4,2.1-2.8,4.2-4.3,6.3l-1.1,1.5-1,1.6c-.7,1.1-1.3,2.1-2,3.1-.7,1-1.3,2.1-2,3.1l-1,1.5-.9,1.6c-2.4,4.2-5,8.2-7.2,12.4-1.2,2-2.3,4.1-3.5,6.1-1.1,2-2.2,4.1-3.3,6l-1.7,3.1c-.6,1-1.1,2.1-1.6,3.2-1.1,2.1-2.2,4.2-3.2,6.3-.6,1-1.1,2.1-1.6,3.2-.5,1.1-1,2.1-1.5,3.2-1,2.1-2.1,4.2-3,6.3-.9,2.1-1.9,4.2-2.8,6.3-1,2.1-1.9,4.2-2.8,6.2-.9,2.1-1.8,4.1-2.6,6.2-.4,1-.9,2-1.3,3-.4,1-.8,2-1.2,3-.5,2.9-1,5.8-1.4,8.7-.4,2.9-.7,5.8-1.1,8.7-2,19.6-1.3,39.4,1.4,58.8,1.3,9.7,3.5,19.3,5.9,28.8.7,2.4,1.4,4.7,2.1,7,.7,2.3,1.3,4.7,2.2,7,1.6,4.6,3.2,9.2,5.1,13.7.9,2.3,1.8,4.5,2.8,6.8l3.1,6.6,1.5,3.3,1.7,3.2,3.4,6.5c1.2,2.1,2.4,4.2,3.7,6.3,1.2,2.1,2.4,4.2,3.8,6.2l4,6.1,1,1.5,1.1,1.5,2.1,3c5.6,8,11.9,15.4,18.3,22.6,6.7,7.1,13.5,14,20.9,20.2,13.5,10.2,28,19.4,43.4,27.3,15.4,7.8,31.8,14.3,48.7,19.2,16.9,4.9,34.4,8.1,52.1,9.5,17.7,1.4,35.5,1,53.1-1.2-32.8,5.4-66.7,4.4-99.4-3.1,17.9,4.7,36.4,7.4,54.9,8.1,18.5.7,37.2-.6,55.5-4.2,31.8-6.4,61-20.2,85.8-39.1.8-1.6,1.9-3.3,3.1-5.1.6-.9,1.3-1.8,2.1-2.8.7-1,1.5-2,2.4-3.1.9-1.1,1.8-2.2,2.9-3.3,1-1.1,2.1-2.3,3.3-3.6,1.1-1.3,2.4-2.6,3.7-4,1.3-1.4,2.8-2.8,4.2-4.3,9.2-9.4,17.8-19.2,25.4-29.8,7.6-10.6,14.1-22,19-34.3.9-1.6,1.8-1.9,2.9-2.7.6-.4,1.2-.8,1.9-1.6.7-.8,1.5-1.9,2.3-3.5-.5,1.2-1.1,2.3-1.7,3.4-.6,1.1-1.1,2.2-1.7,3.3-1.1,2.2-2.1,4.4-3.2,6.4-2.2,4.1-4.1,8.2-6.2,12-1,1.9-2,3.8-2.9,5.7-1,1.8-1.9,3.7-2.9,5.4-.9,1.8-1.8,3.6-2.7,5.3-.9,1.7-1.8,3.4-2.7,5.1,1.3-1.9,2.7-3.8,3.9-5.7,1.2-2,2.5-3.9,3.7-5.9l1.8-3,1.7-3c1.1-2,2.3-4.1,3.4-6.1,1.1-2.1,2.1-4.2,3.2-6.3,1-2.1,2.2-4.2,3.1-6.3,1.9-4.3,3.9-8.6,5.5-13,6.9-16.2,12.2-31.5,16.4-46.8,4.1-15.4,7.1-30.8,8.4-47.2v-2.6c0-.9,0-1.8-.1-2.6,0-1.8-.2-3.5-.3-5.3-1-17.6-4.9-35.2-11-51.9.9,3.5,1.5,7,2.3,10.5.4,1.8.7,3.6,1,5.4.3,1.8.6,3.7.9,5.5-3.2-11.1-6.7-25.3-10.1-35.8,2.2,4.6,4,9.5,5.9,14.3-4.1-16.6-9.8-32.2-17.9-48.6,5.1,9.9,9.6,20.1,13.7,30.2,1,2.5,2,5,3,7.5.9,2.5,1.8,5,2.6,7.4.4,1.2.9,2.4,1.3,3.6.4,1.2.7,2.4,1.1,3.6.7,2.4,1.5,4.7,2.2,7-.6-2.5-1.2-5-1.8-7.5-.3-1.2-.6-2.5-.9-3.7-.4-1.2-.7-2.4-1.1-3.7-.7-2.4-1.4-4.9-2.2-7.3-.8-2.4-1.7-4.7-2.5-7.1-.4-1.2-.8-2.4-1.2-3.5l-1.4-3.5c-.9-2.3-1.9-4.6-2.8-6.9-1-2.3-2.1-4.5-3.1-6.7l-1.5-3.4c-.5-1.1-1.1-2.2-1.7-3.3-8.8-17.6-19.3-34.2-31.7-50.4.8.7,1.6,1.4,2.4,2-10-10.5-20.9-20-32.7-28.4-11.8-8.3-24.3-15.5-37.4-21.5-26.3-12-54.9-19.3-84.8-21.6-1.8-.1-3.5-.3-5.2-.2-1.6,0-3.2.1-4.6.3-1.4.1-2.8.3-4.1.6-1.3.2-2.4.5-3.5.8-4.4,1.4-7.3,3.2-9.1,5-1.8,1.8-2.5,3.6-2.3,5,.2,1.4,1.3,2.2,2.9,2.3,29.5-.8,58.9,5,85.7,16.7,26.8,11.6,50.9,29,70.5,50.5,19.6,21.4,34.5,46.9,43.8,74.2,9.3,27.3,12.9,56.6,10.8,85.5,2.8-12.9,4.5-26.2,4.8-40-.1-3-.2-5.9-.2-8.7-.1-2.9-.2-5.7-.2-8.4.2,2.9.3,5.8.4,8.6,0,2.9,0,5.7,0,8.5.1,2,.1,4,.2,6.1,0,2.1.1,4.1.2,6.2,0,2.1,0,4.2,0,6.3,0,2.1,0,4.3,0,6.4-.1,2.1-.3,4.3-.4,6.4-.1,2.2-.2,4.3-.6,6.5-.6,4.3-1,8.6-2.1,12.8-.3.8-.7,2-1,3.4-.3,1.4-.5,3.1-.8,4.8-.5,3.4-.5,7,.4,9.3-3.5,11.3-7,23.7-11.8,35.6-4.7,12-10.6,23.5-17.6,32.9-.8,1.2-2.7,2.7-4.9,4.5-7.9,12.4-17,24.1-27.2,34.9-7.2,7.4-14.9,14.4-23,20.7-8.2,6.2-16.8,11.9-25.7,17-2.2,1.2-4.5,2.4-6.8,3.6-1.1.6-2.3,1.2-3.4,1.7l-3.5,1.6-3.5,1.6c-1.2.5-2.3,1.1-3.5,1.5-2.4.9-4.7,1.9-7.1,2.8-1.2.5-2.4.9-3.6,1.3l-3.6,1.2-3.6,1.2c-1.2.4-2.4.7-3.6,1.1-2.4.7-4.9,1.4-7.3,2.1-2.5.6-4.9,1.1-7.4,1.7-39.4,8.5-80.8,5.4-117.3-8.7,2.2,1,4.3,1.9,6.5,2.9,2.2.9,4.4,1.7,6.5,2.6,1.1.4,2.2.9,3.3,1.3,1.1.4,2.2.8,3.3,1.2,2.2.8,4.4,1.5,6.5,2.2,2.2.8,4.4,1.3,6.5,2,1.1.3,2.2.7,3.3,1,1.1.3,2.2.7,3.2.9,2.2.6,4.3,1.1,6.5,1.7,1.1.3,2.1.6,3.2.8,1.1.2,2.1.5,3.2.7,1.4.4,3,.7,4.6,1,.8.1,1.7.3,2.5.5.9.1,1.8.2,2.7.3,1.8.2,3.8.3,5.8.5,1,0,2,.1,3.1.2,1,0,2.1,0,3.2,0,2.2,0,4.4,0,6.7,0,.6,0,1.2,0,1.7,0,.6,0,1.2,0,1.8-.1,1.2,0,2.4-.2,3.6-.3,1.2-.1,2.4-.2,3.7-.3,1.2-.1,2.5-.2,3.7-.4,2.5-.4,5-.7,7.6-1.1.6,0,1.3-.2,1.9-.3.6-.1,1.3-.3,1.9-.4,1.3-.3,2.6-.5,3.9-.8,2.6-.6,5.2-1.1,7.8-1.8,2.6-.7,5.2-1.4,7.9-2.1,2.6-.8,5.2-1.7,7.8-2.5,2.6-.8,5.2-1.8,7.7-2.8,2.6-1,5.1-1.9,7.6-3,2.5-1.1,5-2.2,7.4-3.2,2.4-1.2,4.8-2.3,7.2-3.5,2.4-1.2,4.5-2.3,6.5-3.2,2.1-.9,4.1-1.6,6.1-2.3,2-.8,4-1.5,6-2.4,1-.4,2.1-.9,3.2-1.4,1.1-.6,2.1-1.2,3.3-1.9-.9.8-1.7,1.6-2.6,2.4-.9.8-1.9,1.5-2.8,2.3-1.9,1.5-3.9,3-5.9,4.5-2.1,1.4-4.2,2.8-6.4,4.1-1.1.7-2.2,1.4-3.3,2-1.2.6-2.3,1.2-3.5,1.8-1.2.6-2.4,1.2-3.5,1.8-1.2.6-2.4,1.2-3.6,1.7-2.5,1.1-5,2.1-7.5,3.1-1.3.5-2.6.9-3.9,1.4-1.3.4-2.6.9-3.9,1.3-1.3.4-2.6.9-3.9,1.3-1.3.4-2.7.7-4,1.1-1.3.4-2.7.7-4,1.1-1.4.4-2.7.7-4.1,1-2.7.6-5.5,1.1-8.2,1.7-1.4.3-2.8.5-4.2.7l-4.2.6-4.2.6-4.2.4c-11.1,1.4-22.2,1.7-33,1.9-14.3,0-30.1-1.8-46.1-5.8-16-4-32.2-10.1-47.6-18-15.4-8-29.9-17.6-43.2-28.2-13.3-10.5-25.1-22-35.7-33.2-8.8-9.3-15.7-19.8-20.6-30.5-1.3-2.6-2.3-5.4-3.4-8-.5-1.3-1-2.7-1.5-4-.5-1.3-.9-2.7-1.3-4-.8-2.7-1.7-5.2-2.3-7.8-.6-2.6-1.2-5.1-1.8-7.6,4,6.4,9.5,19,12.8,25.2,7,13.9,15.6,27,25.5,39,9.9,12.1,21.1,23.1,33.4,32.8,12.3,9.7,25.7,18.1,39.9,24.9,14.2,6.7,29.2,11.9,44.6,15.3-15.7-4.6-30.8-10.6-45-17.9-14.2-7.4-27.5-16.2-39.8-26.3l-2.3-1.9-1.1-.9-1.1-1-4.4-4-2.2-2-2.1-2.1-4.2-4.2c-1.4-1.4-2.7-2.9-4-4.3l-4-4.4-3.7-4.6-1.9-2.3c-.6-.8-1.2-1.5-1.8-2.3-9.5-12.6-17.5-26.4-23.6-41,1.1,2.1,2.1,4.1,3.2,6.2,1.1,2,2.3,4.1,3.4,6.1l1.7,3,1.8,3c1.2,2,2.4,4,3.6,5.9,1.3,1.9,2.5,3.8,3.8,5.7l1.9,2.9,2,2.8c1.3,1.8,2.7,3.7,4,5.5,1.4,1.8,2.9,3.5,4.3,5.3l2.2,2.6,2.3,2.5c1.5,1.7,3.1,3.3,4.6,5,1.6,1.6,3.2,3.1,4.9,4.7l2.4,2.3c.8.8,1.7,1.5,2.5,2.2,1.7,1.4,3.4,2.9,5.2,4.3,1.7,1.4,3.6,2.6,5.4,3.9,3.6,2.6,7.4,4.8,11.2,6.9-2-2.2-4.1-4.4-6.2-6.6-18.8-15.4-34.6-34-46.6-54.4-4.8-5.6-9.3-11.3-13.4-17.4-1.2-1.7-2.3-3.4-3.5-5.2-1.2-1.8-2.2-3.6-3.2-5.5-.5-.9-1.1-1.9-1.6-2.8-.5-.9-1.1-1.9-1.5-2.9-.9-2-1.9-3.9-2.8-5.9-1-2-1.8-4-2.6-6.1-.8-2.1-1.7-4.1-2.4-6.3-.7-2.1-1.4-4.3-2.1-6.5-.3-1.1-.7-2.2-1-3.3-.3-1.1-.6-2.2-.9-3.3-.6-2.2-1.1-4.5-1.7-6.7-.5-2.3-.9-4.6-1.3-6.9-.2-1.2-.4-2.3-.6-3.5-.2-1.2-.3-2.3-.5-3.5-.3-2.3-.6-4.7-.9-7.1-.8-9.5-1.2-19.1-.6-28.8.9-19.4,4.9-38.9,11.1-57.6,1.7-4.6,3.3-9.3,5.2-13.8l1.4-3.4.7-1.7c.2-.6.5-1.1.8-1.7l3.1-6.7c.5-1.1,1.1-2.2,1.6-3.3l1.7-3.3,1.7-3.3c.6-1.1,1.2-2.1,1.8-3.2,1.2-2.1,2.4-4.2,3.6-6.4,1.3-2.1,2.6-4.1,3.9-6.2.4-.7.9-1.4,1.3-2.2.5-.8.9-1.6,1.4-2.5,1-1.7,1.9-3.7,3-5.8.5-1.1,1.1-2.1,1.6-3.2.6-1.1,1.2-2.2,1.8-3.3.6-1.1,1.2-2.3,1.9-3.4.6-1.2,1.4-2.3,2.1-3.4-8.4,9.6-16.1,19.8-22.8,30.7-6.7,10.9-12.5,22.4-17,34.5,2.3-4.6,4.5-9.2,7.2-13.3.7-1,1.3-2.1,2-3.1.7-1,1.3-2,2-3,1.4-1.9,2.9-3.8,4.3-5.5-5.4,10.6-10.3,20.2-14.7,30.2l-1.6,3.8-.8,1.9-.7,1.9c-.9,2.6-1.9,5.2-2.8,7.8-1.5,5.4-3.1,10.9-3.9,16.9,1.4-12.9,4.5-25.6,8.9-37.6-6.6,14.1-11.1,30.1-14,46.4.6-16.1,5.4-31.1,11.4-45.2.7-1.8,1.5-3.5,2.3-5.3.8-1.7,1.6-3.5,2.4-5.3,1.6-3.5,3.4-6.9,5-10.5,1.8-3.4,3.4-7,5.1-10.6.9-1.8,1.7-3.6,2.6-5.4.8-1.8,1.6-3.7,2.5-5.6-3.6,5.8-7,11.7-10.3,17.7.8-1.5,1.6-3.1,2.5-4.6.4-.8.8-1.5,1.2-2.3l1.3-2.2,2.7-4.5c.5-.7.9-1.5,1.3-2.2l1.4-2.2c0,.1-.1.3-.2.4,1.4-2.2,2.8-4.4,4.1-6.7,1.4-2.2,2.9-4.4,4.3-6.5.7-1.1,1.4-2.2,2.2-3.2.8-1.1,1.5-2.1,2.3-3.2.7-1.1,1.5-2.1,2.2-3.2l1.1-1.6c.4-.5.8-1,1.2-1.5,1.5-2,3.1-4.1,4.6-6.1.7-1,1.6-2,2.4-3,.8-1,1.6-1.9,2.4-2.9.8-1,1.6-1.9,2.4-2.9.8-1,1.6-1.9,2.4-2.8,1.6-1.8,3.2-3.7,4.8-5.5-13.4,12.5-25.4,25.1-36,39.1-10.5,14-19.4,29.2-25.8,46.3l-.8,2.1-.7,2.2-1.4,4.3c-.4,1.4-.9,2.9-1.3,4.3-.4,1.5-.7,2.9-1.1,4.4.4-1.5.7-3,1.1-4.4.4-1.5.9-2.9,1.3-4.3.5-1.4.9-2.9,1.4-4.3l.7-2.1.8-2.1,2.8-7.3c.9-2.4,2.1-4.8,3.1-7.2l1.6-3.6c.5-1.2,1.2-2.3,1.7-3.5,1.2-2.3,2.3-4.7,3.6-7,2.6-4.5,5.1-9.1,8-13.5l2.1-3.3,1.1-1.6,1.1-1.6,4.6-6.3c12.6-16.6,27.6-31.5,44.4-43.7,33.5-24.7,73.7-39.3,114.3-42.6,1.3-.2,2.6-.4,3.8-.5,1.3-.1,2.6-.3,3.9-.4-2.4-1-4.8-2-7.1-2.9-17.1,1.6-34.2,5-50.7,10.3-4.2,1.2-8.2,2.8-12.3,4.3-2.1.7-4,1.6-6,2.4l-6,2.5-5.9,2.8c-2,1-4,1.8-5.9,2.9l-5.8,3.1c-1,.5-1.9,1-2.9,1.6l-2.8,1.7c-15,8.9-29.1,19.3-41.8,31.2-12.7,11.9-24.1,25.1-33.9,39.4Z"/>
              </g>
            </g>
            <g class="st22">
              <g class="st22">
                <path class="st11" d="M384.3,415.4c12.5-10.7,23.9-22.9,33.7-36.1,9.7-13.3,17.9-27.7,24.4-42.8-2.5,6.8-5.3,13.5-8.4,20-5.5,11-12.7,21.6-21.2,31.4-8.5,9.9-18.2,19-28.5,27.5Z"/>
                <path class="st11" d="M304.9,458.1c0,0,.1,0,.2,0,12.3-3.5,24.2-8.2,35.6-13.8,2.8-1.5,5.7-2.9,8.5-4.4l8.3-4.8,8-5.2c2.6-1.8,5.2-3.7,7.8-5.5-1.4,1-2.8,2.1-4.2,3.1-9.5,7.2-19.7,13.5-30.4,18.8-10.7,5.2-22.1,9.2-33.7,11.9Z"/>
                <path class="st8" d="M14.7,236.4c1.8,13.9,4.6,29,8.9,44,4.3,14.9,10.2,29.6,17.2,42.8.6,1.8,1.5,3.5,2.3,5.2.8,1.7,1.6,3.5,2.4,5.2.2.4.4.8.6,1.3.2.4.4.8.6,1.2.4.8.8,1.6,1.2,2.4.8,1.6,1.5,3.1,2.2,4.5,0,0,.3.6.9,1.7.6,1.1,1.4,2.7,2.5,4.7,1.1,2,2.3,4.4,3.9,7,.8,1.3,1.6,2.7,2.4,4.1.4.7.8,1.4,1.3,2.2.5.7.9,1.4,1.4,2.2,1,1.5,1.9,3,2.9,4.5.5.8,1,1.6,1.5,2.3.5.8,1.1,1.5,1.6,2.3,2.2,3,4.4,6.1,6.7,9,1.2,1.5,2.3,2.9,3.4,4.3,1.1,1.4,2.3,2.7,3.4,4,1.1,1.3,2.2,2.5,3.2,3.7,1,1.2,2.1,2.3,3.1,3.3-10.7-8.2-19.8-16-27.7-22.2,1.3,2,2.9,4.5,4.5,7,.8,1.3,1.8,2.6,2.7,3.9.9,1.3,1.8,2.5,2.7,3.7,1.7,2.4,3.3,4.5,4.4,6.1,1.1,1.6,1.7,2.6,1.5,2.8-1.5-.3-3.5-1.3-6-2.9-1.3-.8-2.5-1.8-3.9-3-1.4-1.1-2.8-2.4-4.3-3.8-1.6-1.4-3-3-4.6-4.6-1.6-1.7-3.2-3.4-4.8-5.2-1.6-1.9-3.2-3.8-4.8-5.8-.8-1-1.6-2-2.4-3-.8-1-1.5-2.1-2.3-3.2-.4-.7-1.3-2.5-2.8-5.1-1.4-2.7-3.1-6.4-5.1-10.7-3.8-8.8-8.5-20.6-12.2-33.9-.9-3.4-1.8-6.8-2.6-10.2-.7-3.5-1.5-7-2.2-10.6-.6-3.6-1.2-7.2-1.7-10.8-.5-3.6-.8-7.2-1.2-10.8-1.4-14.3-1.3-28-.8-39.3Z"/>
                <path class="st17" d="M45.8,135.4c.9-1.6,1.9-3.2,2.9-4.8,1-1.6,2.1-3.2,3.2-4.8,1.1-1.6,2.1-3.3,3.3-4.8,1.2-1.6,2.4-3.2,3.6-4.7,2.3-3.2,4.9-6.2,7.5-9.3.6-.8,1.3-1.5,1.9-2.3.6-.7,1.3-1.4,2-2.2,1.3-1.4,2.6-2.8,3.9-4.2,5.2-5.5,10.5-10.4,15.2-14.5,1.2-1,2.3-2.1,3.4-3,1.1-.9,2.2-1.8,3.2-2.6,2.1-1.6,3.8-3.1,5.4-4.3-1.4,1.9-2.8,3.9-4.3,5.9-1.4,2-2.9,3.9-4.4,6.1-1.4,2.1-2.9,4.3-4.5,6.4-1.5,2.2-3,4.6-4.7,7,1.8-1.5,3.5-2.9,5-4.2.8-.7,1.6-1.3,2.4-1.9.8-.6,1.6-1.2,2.3-1.8,1.6-1.2,3.1-2.4,4.7-3.6,1.6-1.2,3.4-2.5,5.2-3.9-1.6,1.9-3.1,3.6-4.6,5.5-8.4,7.8-16.2,16.4-23.3,25.4l-2.6,3.4-1.3,1.7c-.4.6-.8,1.2-1.2,1.8l-4.9,7.1-4.6,7.3c-.8,1.2-1.5,2.4-2.2,3.7l-2.1,3.7c-5.5,10-10.3,20.4-14.1,31.1-3.8,10.7-6.8,21.8-9,32.9-.2-.8,0-4.9.2-10.8.2-3,.6-6.3,1-10,.2-1.9.5-3.7.8-5.7.3-1.9.6-3.9.9-5.9.1-1,.3-2,.6-3l.6-3c.4-2,.8-4.1,1.2-6,1-4,1.9-7.8,2.8-11.4,1-3.5,2-6.8,2.7-9.6.8-2.8,1.5-5.1,1.9-6.8Z"/>
                <path class="st28" d="M17.7,216.8c.1-1.4.4-2.7.5-4.1.2-1.3.4-2.6.6-4,.2-1.3.4-2.6.6-3.9.2-1.3.5-2.5.7-3.8.5-2.5,1-4.9,1.5-7.3.5-2.4,1.2-4.7,1.7-7,2.5-9,5.9-17.7,9.5-26.4,3.9-8.5,8-17,13-25-.4,1.7-.8,3.4-1.3,5.3-.5,1.8-.8,3.7-1.3,5.7-.5,2-1,4-1.5,6-.5,2.1-.9,4.3-1.4,6.5-1.1,4.4-2,9.1-3.1,13.9-.3,1.2-.5,2.5-.7,3.7-.2,1.3-.5,2.5-.7,3.8-.2,1.3-.5,2.6-.7,3.9-.3,1.3-.4,2.6-.6,4,.8-3,3.1-5.1,4.1-8-.5,1.8-1,3.5-1.4,5.2-.4,1.7-.8,3.2-1.1,4.8-.4,1.5-.7,2.9-1,4.3-.2.7-.3,1.3-.5,1.9-.1.6-.2,1.2-.3,1.8-.8,4.7-1.4,8-1,9.7-1.9,10.4-3.1,20.9-3.6,31.4v7.9c-.1,1.3-.2,2.6-.2,3.9v3.9c.3,2.6.3,5.3.5,7.9l.7,7.9c2.1,20.9,7.3,41.5,15.3,61-1.1-2-2-4.1-3-6.1-.9-2.1-1.6-4.2-2.3-6.4-1.6-4.3-2.5-8.7-3.8-13,0,2.2.4,4.9,1.1,7.9.3,1.5.9,3,1.4,4.5.5,1.5,1.1,3.1,1.7,4.7-7.1-13.2-12.9-27.9-17.2-42.8-4.3-14.9-7.1-30-8.9-44,.2-3.2.5-6.3.7-9.4,1-2.6,1.9-4.9,2.3-10.2Z"/>
                <path class="st6" d="M334.5,453.1c-2.9,1.7-5.9,3.1-8.6,4.6-1.4.7-2.7,1.5-4.1,2.1-1.4.6-2.7,1.3-4,1.9-1.3.6-2.6,1.3-3.8,1.9-.6.3-1.3.6-1.9.9-.6.3-1.2.6-1.9.8-2.5,1.1-4.8,2.2-7.1,3.2-4.6,2-8.9,3.8-12.9,5.6-2,.8-4,1.6-5.9,2.4-1.9.8-3.7,1.6-5.5,2.3-2,.2-4.6.4-7.4.6-.7,0-1.4.1-2.2.2-.7,0-1.5,0-2.3.1-1.5,0-3.1.2-4.7.2-1.6,0-3.2.2-4.8.3-1.6,0-3.3,0-4.9.1-1.6,0-3.2.1-4.7.2-.8,0-1.5.1-2.3.2-.7,0-1.5,0-2.2,0-10.5,0-26.8-1.6-41.1-4.4-3.6-.6-7-1.5-10.2-2.2-1.6-.4-3.2-.7-4.6-1.1-1.5-.4-2.9-.8-4.2-1.1-2.7-.7-5-1.3-6.8-1.7-1.9-.5-3.3-.9-4.2-1-1.8-.3.1.2,4.4,1.1,2.1.4,4.9.8,7.9,1.3,1.6.2,3.2.5,4.9.7,1.7.2,3.5.4,5.4.5,1.9.2,3.8.4,5.7.5,1.9,0,3.9.2,5.9.3,2,0,3.9.2,5.9.2,2,0,3.9,0,5.8,0,1.9,0,3.8,0,5.6-.1,1.8-.1,3.5-.2,5.2-.3,1.7-.1,3.2-.2,4.7-.3,1.5-.1,2.8-.3,4.1-.5,1.1-1,4.3-1.7,8.8-2.5,4.4-1,10.1-1.7,16.2-3,3.9-.2.7,1.3,4.7,1.2,0,0,.4-.2,1.1-.4.6-.2,1.5-.5,2.3-.8,1.7-.6,3.4-1.2,3.4-1.2,0,0,1.8-.2,4.7-.6,2.9-.5,6.8-1.2,11.2-2,2.2-.5,4.5-1,6.8-1.6,1.2-.3,2.3-.5,3.5-.8,1.1-.3,2.3-.6,3.4-1,2.3-.6,4.5-1.3,6.5-1.8,2-.7,3.9-1.3,5.6-1.9.9,0,2-.2,3.1-.4,1.1-.2,2.4-.6,3.6-1,2.5-.8,5.1-1.9,7.6-3,4.8-2.3,8.6-4.7,8.8-4.9,1.9-.9,3.7-1.9,5.5-2.8,1.8-1,3.7-1.8,5.5-2.9.1,0,.2-.1.3-.2-1.1.8-2.2,1.6-3.4,2.3-1.1.8-2.3,1.5-3.4,2.3-1.1.8-2.3,1.5-3.5,2.3-1.2.7-2.4,1.4-3.6,2.1-2.6,1.7-2,3.1-2,3.1Z"/>
                <path class="st20" d="M76.6,399.5c-1.5-.3-3.5-1.3-6-2.9-1.3-.8-2.5-1.8-3.9-3-1.4-1.1-2.8-2.4-4.3-3.8-1.6-1.4-3-3-4.6-4.6-1.6-1.7-3.2-3.4-4.8-5.2-1.6-1.9-3.2-3.8-4.8-5.8-.8-1-1.6-2-2.4-3-.8-1-1.5-2.1-2.3-3.2.5.9,1.1,2,1.7,3.2.6,1.2,1.5,2.5,2.3,3.8.8,1.3,1.7,2.8,2.5,4.2l1.3,2.1c.4.7.9,1.4,1.4,2.1,1.8,2.7,3.5,5.3,4.9,7.2,1.4,1.9,2.5,3.3,2.8,3.8-.8-2.5-2.6-6.3.7-2.7,1.1,1.2,2.1,2.5,3.2,3.8,1.1,1.3,2.2,2.7,3.4,3.9,2.4,2.6,4.8,5.2,7.2,7.7,2.4,2.4,4.8,4.8,7,7,2.3,2.1,4.3,4.1,6.1,5.7,8.9,8.6,18.7,18,29.6,25.9,2.4,1.4,4.7,2.8,7.1,4.2,2.4,1.3,4.8,2.6,7.2,3.9,1.2.6,2.4,1.3,3.6,1.9,1.2.6,2.4,1.1,3.7,1.7,1.2.6,2.4,1.1,3.6,1.7,1.2.6,2.4,1.1,3.6,1.6.7.3,6.5,1.4,6.7.8,1.7.8,3.3,1.5,5,2.2,1.6.7,3.3,1.4,4.8,2,3.2,1.4,6.3,2.6,9.4,3.8.2,0,3.9,1,9.6,2,2.8.5,6.1,1.2,9.7,1.6,1.8.2,3.6.5,5.5.7.9.1,1.9.3,2.9.3,1,0,1.9.1,2.9.2,3.9.2,7.8.6,11.6.6,1.9,0,3.7,0,5.5,0,.9,0,1.7,0,2.6,0,.8,0,1.7-.1,2.5-.2,3.2-.2,6-.5,8.2-.8,2.2-.3,3.8-.8,4.6-1.2,1.1-1,4.3-1.7,8.8-2.5,4.4-1,10.1-1.7,16.2-3-.2,0-2.5.2-6,.4-1.8,0-3.9,0-6.3.1-2.3,0-4.9.1-7.6,0-10.8,0-23.4-1.6-31.6-2.9.1.1.6.3,1.2.6.7.2,1.5.5,2.4.7,1.8.5,3.8,1,4.7,1.2-.6,0-2-.3-4-.7-1-.2-2.1-.4-3.2-.6-1.2-.3-2.4-.6-3.7-.9-2.5-.6-5.2-1.2-7.6-1.9-2.4-.7-4.5-1.3-6.1-1.8-1.3-.3-2.8-.6-4.5-1.1-1.7-.5-3.5-1-5.3-1.6-3.8-1-7.8-2.5-11.7-3.8-1-.3-1.9-.6-2.8-1-.9-.4-1.8-.7-2.6-1-1.7-.7-3.2-1.3-4.6-1.8-2.7-1-4.6-1.9-5.1-2.1-2.8-1.3,2.4,2.2,2,3.1-11.4-6.4-22.8-13.4-34-21.4-1.6-1-3.1-2.1-4.6-3.2l-4.5-3.3c-.7-1-1.2-1.7,0-.8,2,1.3,3.9,2.6,5.9,3.9-1.4-1-3.9-2.8-7-5.1-1.5-1.2-3.1-2.5-4.8-3.9-.8-.7-1.7-1.4-2.6-2.1-.8-.7-1.7-1.5-2.5-2.3-1.7-1.5-3.4-3-5.1-4.5-1.6-1.5-3.1-3-4.5-4.4-2.9-2.7-5-5.1-6.3-6.5,1.3,1.5,2.6,3,3.9,4.4,1.3,1.4,2.7,2.8,4,4.2,2.6,2.9,5.4,5.5,8,8.2-3-2.7-6.1-5.2-8.9-8.1l-4.3-4.2-4.1-4.4c-.2-.2-.5-.5-.7-.7-10.7-8.2-19.7-15.9-27.6-22.1,1.3,2,2.9,4.5,4.5,7,.8,1.3,1.8,2.6,2.7,3.9.9,1.3,1.8,2.5,2.7,3.7,1.7,2.4,3.3,4.5,4.4,6.1,1.1,1.6,1.7,2.6,1.5,2.8Z"/>
                <path class="st30" d="M324.6,50c-.9-.5-1.9-1-2.9-1.5-1-.5-2-1-3.1-1.5-2.2-.9-4.5-1.9-6.9-2.9-.6-.2-1.2-.5-1.8-.7-.6-.2-1.2-.4-1.9-.6-1.2-.4-2.5-.9-3.8-1.3-1.3-.4-2.5-.9-3.8-1.3-1.3-.4-2.6-.7-3.9-1.1-10.3-3.2-20.6-5.1-27.9-7.2-5.6-1.6-9.4-3.1-11.9-4.5-2.5-1.3-3.8-2.6-4.7-3.9-1.7-2.6-1.6-5.3-6.6-8,19.2.6,38.2,3.4,56.7,8.3l1.7.4,1.7.5,3.4,1c2.3.7,4.6,1.4,6.8,2.1l6.7,2.4c1.1.4,2.3.8,3.4,1.2l3.3,1.4,6.6,2.7,6.5,3c4.4,1.9,8.5,4.3,12.7,6.5,1.1.5,2.1,1.2,3.1,1.8l3.1,1.8,3.1,1.8c1,.6,2,1.2,3,1.9,4,2.7,8,5.2,11.8,8.1,1.9,1.4,3.9,2.8,5.7,4.2l5.6,4.5c.9.8,1.9,1.5,2.8,2.3l2.7,2.4,5.3,4.7c6.9,6.6,13.6,13.3,19.7,20.7,3.2,3.6,6,7.4,8.9,11.1l1.1,1.4,1,1.5,2,2.9c1.3,2,2.8,3.9,4,5.9-1.5-1.8-3.2-3.7-4.9-5.9-.9-1.1-1.7-2.1-2.6-3.2-.9-1.1-1.9-2.2-2.8-3.3-1-1.1-1.9-2.3-2.9-3.4-1-1.2-1.9-2.3-3-3.4-2.1-2.3-4.2-4.5-6.3-6.8-8.6-8.8-17.9-16.4-24.9-19.9-.3.4,4.2,4.9,6.2,7.4-3.9-2.8-8.1-6.3-12.8-9.4-4.5-3.3-9.4-6.3-13.7-9-2.2-1.2-4.3-2.4-6.3-3.4-1-.5-1.9-1-2.7-1.4-.9-.4-1.7-.8-2.4-1.1-3-1.2-4.9-1.8-5.2-1.2-.8,1.4,3.3,5.6,4.4,8.6-1.9-1.2-3.9-2.2-5.8-3.4-5.7-4.2-15.9-8.9-27.7-13.4Z"/>
                <path class="st25" d="M424,133.1c-9-13.6-19.9-26.1-31.8-37.3.2-.5.2-1.1,0-1.8l5.3,5,5,5.2c.8.9,1.7,1.7,2.5,2.6l2.4,2.7,2.4,2.7c.8.9,1.6,1.8,2.3,2.8l4.5,5.7,1.1,1.4,1.1,1.5,2.1,2.9c2.9,3.8,5.5,8,8.2,12-1.8-2-3.5-3.8-5.2-5.4Z"/>
                <path class="st25" d="M396.8,83.7c-2-2.4-6.5-7-6.2-7.4,7,3.5,16.3,11.1,24.9,19.9,2.1,2.3,4.2,4.5,6.3,6.8,1.1,1.1,2,2.3,3,3.4,1,1.2,2,2.3,2.9,3.4,1,1.1,1.9,2.2,2.8,3.3.9,1.1,1.8,2.2,2.6,3.2,1.7,2.1,3.4,4,4.9,5.9,16.1,24.4,27.6,51.9,33.4,80.5-1.6-4.8-2.9-9.6-4.8-14.3.5,1.9,1,3.7,1.3,5.3.3,1.6.5,3.1.6,4.6.2,1.4.3,2.7.3,4,0,1.3.1,2.5.1,3.7,0,4.9,0,9.7,1,17.6-4.3-22.8-12.9-48.6-25.2-70.6-6.1-11-13.2-21-20.4-29.5-3.5-4.3-7.3-8-10.8-11.6-1.8-1.7-3.6-3.3-5.4-4.8-.9-.7-1.7-1.5-2.6-2.2-.9-.7-1.7-1.3-2.6-1.9l-5.1-5.2-5.3-5c-.9-.8-1.8-1.7-2.7-2.5l-2.8-2.4c-1.9-1.5-3.7-3.2-5.6-4.7l-5.8-4.4-1.4-1.1-1.5-1-3-2.1c-3.9-2.9-8.1-5.4-12.1-8-1.1-3.1-5.2-7.2-4.4-8.6.3-.6,2.2,0,5.2,1.2.7.3,1.6.6,2.4,1.1.8.4,1.8.9,2.7,1.4,1.9,1,4,2.2,6.3,3.4,4.3,2.7,9.2,5.6,13.7,9,4.7,3.1,8.9,6.6,12.8,9.4Z"/>
                <path class="st16" d="M470.2,223.7c-.9-7.9-1-12.7-1-17.6,0-1.2,0-2.4-.1-3.7,0-1.3-.2-2.6-.3-4-.2-1.4-.4-2.9-.6-4.6-.3-1.6-.8-3.4-1.3-5.3,1.9,4.7,3.2,9.5,4.8,14.3,3.5,16.5,5,33.4,4.8,50.3-.2,16.9-2.2,33.7-6,50.2-.3,1.1-.6,2.2-.8,3.3l-.4,1.6-.5,1.6c-.9,3.1-1.8,6.1-2.7,9.1-1,2.9-2,5.8-3,8.7-.2.7-.5,1.4-.7,2.1-.3.7-.6,1.4-.8,2.1-.6,1.4-1.1,2.8-1.7,4.1-.5,1.4-1.1,2.7-1.6,4.1-.6,1.3-1.2,2.7-1.8,4-.6,1.3-1.2,2.6-1.8,4-.6,1.3-1.2,2.6-1.9,3.9-1.3,2.6-2.7,5.1-4,7.7-1.4,2.6-2.9,5-4.4,7.6-1.4,2.6-3.1,5-4.8,7.5,6.9-14.6,12.3-29.6,16.1-45.3,6.6-13.5,12-28.5,15.5-44.7,3.5-16.2,5.2-33.7,4.6-52,.3,6.5-.5,8.9-1.2,10.6-.7,1.6-1.5,2.4-1.6,5.6-1.4,11.8-4.3,22.5-7.3,28.7-2.9,6.2-5.2,7.9-5.7,2.2l.5-4.4c.2-1.5.4-2.9.4-4.4l.6-8.8c.1-5.9.3-11.8,0-17.7-.5-11.8-1.7-23.6-4.1-35.1-2.4-11.5-5.7-22.9-9.8-33.9-4.2-11-9.4-21.6-15.3-31.8-.5-1.5-1.1-3.5-1.8-5.3-.7-1.7-1.5-3.4-2.1-4.5-7.4-11-15.7-21.4-24.9-30.9.8.6,1.7,1.3,2.6,1.9.8.7,1.7,1.4,2.6,2.2,1.7,1.5,3.5,3.1,5.4,4.8,3.5,3.5,7.3,7.2,10.8,11.6,7.2,8.5,14.3,18.5,20.4,29.5,12.3,22,20.9,47.8,25.2,70.6Z"/>
                <path class="st11" d="M455.5,329.5c-3.9,15.7-9.2,30.8-16.1,45.3-.8,1.3-1.7,2.6-2.6,3.8-.9,1.3-1.8,2.5-2.8,3.8-.9,1.3-1.9,2.5-2.9,3.8-.5.6-1,1.3-1.5,1.9-.5.6-1,1.2-1.6,1.9.4.3.7.5,2.4-.9l-4.2,5.4-2.1,2.7c-.7.9-1.5,1.7-2.2,2.6-1.9,2-4,3.7-6.1,5.8-2.2,2-4.3,4.4-6.4,7.9-2.3,2.3-4.6,4.5-6.9,6.7l-1.7,1.7-1.8,1.6-3.6,3.2c-1.4,1-2.7,2-4,2.7-1.3.8-2.5,1.5-3.7,2.2-2.3,1.3-4.3,2.3-6,2.9l.9,1.2c-2.3,2.3-5,4.2-7.7,5.9-2.8,1.7-5.6,3.2-8.4,4.9.1.2.4.6,0,1.2-1.6,1-3.4,1.8-5.1,2.8-1.7.9-3.5,1.9-5.3,2.9-3.6,1.9-7.4,3.7-11.1,5.5-1.9.9-3.8,1.7-5.7,2.6-1,.4-1.9.9-2.8,1.3l-1.4.6-1.4.6c-1.9.8-3.8,1.5-5.7,2.3-.9.4-1.9.7-2.8,1.1-.9.4-1.8.7-2.8,1-1.8.6-3.6,1.3-5.3,1.9-1.7.6-3.4,1.2-5,1.7-3.3,1-6.3,1.9-9,2.7-5.4,1.4-9.5,2.4-11.4,2.8-2.2.3-4.4.5-6.6.8-2.2.3-4.4.6-6.6.8,1.8-.7,3.6-1.5,5.5-2.3,1.9-.8,3.9-1.6,5.9-2.4,4-1.7,8.3-3.6,12.9-5.6,2.3-1.1,4.6-2.1,7.1-3.2.6-.3,1.2-.5,1.9-.8.6-.3,1.2-.6,1.9-.9,1.3-.6,2.5-1.2,3.8-1.9,1.3-.6,2.6-1.3,4-1.9,1.3-.7,2.7-1.4,4.1-2.1,2.8-1.5,5.7-2.9,8.6-4.6,0,0-.6-1.4,2-3.1,1.2-.7,2.4-1.4,3.6-2.1,1.2-.7,2.3-1.5,3.5-2.3,1.1-.8,2.3-1.5,3.4-2.3,1.1-.8,2.3-1.5,3.4-2.3,1.9-.9,3.8-1.8,5.7-2.8.9-.5,1.9-1,2.9-1.5.9-.5,1.9-1.1,2.8-1.6,1.9-1.1,3.7-2.2,5.6-3.4,1.8-1.2,3.6-2.5,5.4-3.7,3.6-2.4,6.9-5.2,10.2-7.7,1.6-1.3,3.1-2.7,4.6-4,1.5-1.3,2.9-2.6,4.3-3.9,2.7-2.6,5.1-5.2,7.3-7.4,2.1-2.3,4-4.5,5.5-6.3.8-.9,1.5-1.7,2.1-2.4.6-.8,1.1-1.4,1.5-2,.9-1.1,1.4-1.8,1.5-1.9,3.2-3.5,6-7.4,8.9-11.1,2.1-2.7,4.1-5.6,6.4-8.6,1.1-1.5,2.1-3.2,3.3-4.8,1.1-1.6,2.3-3.3,3.4-5,4.3-6.9,8.8-14.4,12.4-22.5,3.9-8,6.9-16.5,9.4-24.9.6-2.1,1.1-4.2,1.6-6.3.5-2.1,1-4.2,1.3-6.2.3-2.1.7-4.1,1-6.1.1-1,.3-2,.4-3,0-1,.1-2,.2-3,.6-3.6,1.3-7.3,1.7-10.9.5,5.7,2.8,4,5.7-2.2,3-6.2,5.9-16.9,7.3-28.7,0-1.6.3-4.1.6-6.8.1-1.3.3-2.7.4-4.1,0-1.3.2-2.6.3-3.8.4-4.7,1-7.2,1.5-1.5,0,1.3.2,2.5.2,3.8,0,.7,0,1.3.1,2,0,.7,0,1.3,0,2,0,2.7,0,5.4,0,8.2,0,1.4,0,2.8-.2,4.2-.1,1.4-.2,2.8-.3,4.2-.1,1.4-.2,2.8-.3,4.3,0,1.4-.3,2.8-.5,4.3-.4,2.8-.8,5.7-1.2,8.5-.5,2.8-1.1,5.6-1.6,8.3-.5,2.7-1.2,5.4-1.9,8-.3,1.3-.7,2.6-1,3.8-.3,1.3-.6,2.5-1,3.7-1.5,4.8-2.9,9.3-4.5,13.2-.7,2-1.5,3.8-2.1,5.5-.6,1.7-1.4,3.2-2,4.6-1.2,2.8-2.2,4.9-2.9,6.3-.7,1.4-1.1,2-.9,1.8Z"/>
                <path class="st13" d="M213.1,28.4c2.7-.3,5.4-.5,8-.8,1.3-.2,2.7-.2,4-.3,1.4,0,2.7-.1,4.1-.2,1.4,0,2.7-.1,4.1-.2,1.4,0,2.7,0,4.1,0,2.7,0,5.5,0,8.2,0-5.9.2-11.8,0-17,.6-1.3.1-2.6.2-3.8.3-1.2.1-2.4.2-3.4.5-2.1.4-4,.8-5.5,1.3-1.3,0-2.6.2-4,.3-1.4.2-2.8.4-4.2.6-1.4.2-2.9.5-4.3.7-1.5.3-2.9.5-4.4.9.5-.2,1.1-.4,1.6-.6.6-.2,1.1-.3,1.7-.5,1.1-.3,2.3-.6,3.5-.9,1.2-.3,2.4-.6,3.6-.9.6-.1,1.2-.3,1.8-.5.6-.1,1.3-.2,1.9-.4Z"/>
                <path class="st13" d="M194.2,39.3c-3,.6-5.9,1.5-8.8,2.4-.3-.9,5.3-3.7,11.5-4.5-.2-1-6,1.4-6.1.9-.3-1.3,3.1-2.1,7.2-2.9.2,1.1-.7,2.5-2.1,3.7-.7.6-1.6,1.2-2.6,1.6-1,.5-2,.9-3.1,1.2-1.9.5-3.8,1.1-5.8,1.6,1.6-.7,3.7-1.5,5.5-2.2,1.9-.8,3.6-1.3,4.3-1.8Z"/>
                <path class="st27" d="M103,84.2c-1.8,1.4-3.5,2.7-5.2,3.9-1.6,1.3-3.1,2.4-4.7,3.6-.8.6-1.6,1.2-2.3,1.8-.8.6-1.6,1.2-2.4,1.9-1.6,1.3-3.2,2.7-5,4.2,1.6-2.4,3.2-4.7,4.7-7,1.6-2.2,3.1-4.3,4.5-6.4,1.4-2.2,2.9-4.1,4.4-6.1,1.5-2,2.8-4,4.3-5.9,23-17.5,48.6-30.5,76.3-38.4-4.8,2-9.4,3.8-13.4,6,1.4-.5,2.8-1.1,4.2-1.6,1.4-.5,2.8-.9,4.2-1.4,1.4-.4,2.7-.9,4.1-1.3,1.3-.4,2.6-.8,3.9-1-1.1.5-2,1.1-2.6,1.7,0,0,0,0,0,0-4.1,1.2-7.5,2.4-7,3.7.2.5,5.7-2.5,6.1-1.5-3,.8-5.9,1.8-8,2.9-2.1,1.2-3.3,2.2-3.1,2.7,1.4-.6,2.9-1.1,4.3-1.7,1.5-.5,2.9-1,4.4-1.5-.7.5-2.4,1.3-4.2,2.1-1.8.9-3.8,1.9-5.4,2.8-24.6,9.8-47.2,24.2-66.5,42,1.5-1.9,3.1-3.6,4.6-5.5Z"/>
              </g>
            </g>
          </g>
          <g>
            <path class="st3" d="M418.9,108.4c-77,5-157.1,19.7-263,22.2-28.1.7-61.3.6-98.9-1.3C96.9,67.4,166.4,26.4,245.6,26.4s132.2,31.9,173.3,82Z"/>
            <path class="st5" d="M463.5,197.7c-42.8-9.1-79.8-10.1-110.6-7.8-129.4,9.7-195.7,81.8-315.5,62.5-5.4-.9-10.8-1.9-16-3.1.3-44.2,13.3-85.3,35.6-119.9,37.6,1.9,70.8,2,98.9,1.3,106-2.6,186-17.2,263-22.2,21,25.6,36.5,56,44.6,89.3Z"/>
            <path class="st4" d="M469.8,250.6c0,40.1-10.5,77.8-29,110.3-74.9-6.6-136.1-18.7-182.4-30.1-94.4-23.3-148.1-48.9-234.1-44-1.9-11.8-2.9-23.9-2.9-36.2s0-.9,0-1.4c5.2,1.2,10.6,2.2,16,3.1,119.8,19.4,186.1-52.7,315.5-62.5,30.8-2.3,67.8-1.3,110.6,7.8,4.1,17,6.3,34.7,6.3,52.9Z"/>
            <path class="st2" d="M440.8,360.9c-23.7,41.8-60.3,75.2-104.5,94.8-55.2-11.6-103.6-35.3-177.2-41.6-19.5-1.7-42-2.2-67.3-.3-35-33-59.4-77.2-67.5-126.9,86-5,139.7,20.7,234.1,44,46.4,11.4,107.5,23.5,182.4,30.1Z"/>
            <path class="st4" d="M336.3,455.7c-27.7,12.3-58.4,19.1-90.7,19.1-59.5,0-113.6-23.2-153.8-61,25.3-1.9,47.8-1.3,67.3.3,73.6,6.3,122,30,177.2,41.6Z"/>
          </g>
          <g class="st15">
            <g class="st24">
              <g>
                <path class="st1" d="M-569.7,97.9C-480.8,61.7-347.1,20-186.4,21.9c241.5,2.8,341.7,101.6,591.3,111.9,103.3,4.3,253.5-5.7,445.7-74.6"/>
                <path class="st1" d="M864.5,84.5c-114.3,39.4-222.4,59.8-320.8,67s-98.7,3.8-138,1.8c-128.7-6.7-214.5-35.5-311-54.7C-2.3,79.3-78.8,68-200.6,72.8c-29.4,1.1-58.8,3.2-88.4,6.2-125.3,12.5-232.2,39.3-306.6,62.6"/>
                <path class="st1" d="M878.4,109.8c-107.9,35.4-220,56.4-330.4,62.7s-101.3,2.7-141.7.1c-131.2-8.2-214.7-37.6-320-49.6-108.7-12.3-176.7-10.4-301.2.6-29.1,2.6-59.1,5.6-90.4,9.3-128.3,14.6-239.9,35.1-316.4,52.4"/>
                <path class="st1" d="M892.3,135.1c-101.4,31.5-217.5,53.2-339.9,58.5-56.2,2.5-104,1.5-145.3-1.5-133.6-9.7-214.9-39.6-329.1-44.5s-179.9,9.5-307.1,27c-28.8,4-59.3,8-92.3,12.4-131.3,16.8-247.7,30.9-326.2,42.2"/>
                <path class="st1" d="M906.1,160.4c-95,27.6-215,50.1-349.4,54.3-57.9,1.8-106.7.3-148.9-3.2-136-11.2-215.2-41.3-338.2-39.4-132.2,2.1-183.2,29.2-313,53.4-28.4,5.3-59.5,10.4-94.3,15.4-134.2,19-255.4,26.8-336,31.9"/>
                <path class="st1" d="M920,185.7c-88.6,23.7-212.5,47.3-358.9,50.1-59.6,1.4-109.3-.9-152.6-4.9-138.5-12.6-215.4-43-347.3-34.3s-186.5,48.7-318.8,79.8c-28.1,6.6-59.7,12.8-96.2,18.5-137.2,21.2-263.1,22.6-345.8,21.7"/>
                <path class="st1" d="M933.8,211c-82.1,19.8-210,44.1-368.5,45.9-256.7,3-327.6-56-512.6-35.8-187.6,20.5-199,90.4-422.9,127.7-140.2,23.4-270.9,18.5-355.6,11.4"/>
                <path class="st1" d="M-714.5,372.8c79.2,11.1,202.9,22.2,340.9,4.8,228.1-28.8,256.1-109,458.9-125.8,186.5-15.5,251,44.6,512.3,45.8,154.9.3,281.1-21.1,362.5-38.7"/>
                <path class="st1" d="M-703.4,385.3c73.6,15.2,190.5,32.7,326.2,21.1,232.4-20,276.9-111,494.9-123.9,187.9-11.1,246.1,51.1,512.1,55.9,151.4,2.7,275.9-16,356.6-31.6"/>
                <path class="st1" d="M-692.2,397.8c68,19.3,178.1,43.4,311.5,37.3,236.8-10.8,297.7-113.4,530.9-122,189.4-7,241.2,57.1,511.8,65.9,147.9,4.9,270.6-10.9,350.6-24.4"/>
                <path class="st1" d="M-681.1,410.3c62.4,23.4,165.7,52.8,296.8,53.6,241.1,1.4,318.4-116,566.9-120.1,190.8-3.1,236.4,62.8,511.6,76,144.4,6.9,265.4-5.9,344.7-17.2"/>
                <path class="st1" d="M-670,422.8c56.8,27.5,153.3,65.4,282.1,69.8,245.4,8.5,339.2-118.9,602.9-118.1s231.5,68,511.3,86.1c140.9,8.6,260.1-.8,338.7-10"/>
                <path class="st1" d="M-658.8,435.3c51.3,31.6,140.9,76.6,267.4,86.1,249.7,18.7,360-122.1,638.8-116.2,193.7,4.1,226.7,73.9,511.1,96.1,137.3,10.7,254.9,4.3,332.8-2.9"/>
              </g>
              <g>
                <path class="st1" d="M964.7,251.8c-334.3,32.3-497.7-13.6-585.1-60.3-113.6-60.7-114.7-131.4-236.4-175C-1.5-35.3-190.5-3.7-320.1,28"/>
                <path class="st1" d="M957,284.8c-292.6,23.3-450.8-21-549.7-68.6-126.1-61.1-137.2-124.8-258.3-165C12.3,5.8-169.9,29.7-312.3,62.2"/>
                <path class="st1" d="M949.2,317.8c-250.9,14.3-403.8-28.4-514.2-77-138.6-61.5-159.7-118.3-280.2-154.9s-304-22.7-459.3,10.5"/>
                <path class="st1" d="M941.4,350.8c-209.1,5.2-356.8-35.8-478.8-85.4-151.1-61.9-182.1-112-302.1-144.9-120.6-33.1-289.2-23.9-457.3,10"/>
                <path class="st1" d="M933.7,383.8c-167.4-3.8-309.9-43.3-443.4-93.7-163.6-62.3-204.5-105.9-324-134.9s-274.3-25.2-455.3,9.6"/>
                <path class="st1" d="M925.9,416.8c-125.7-12.8-262.9-50.7-408-102.1-176.1-62.7-226.7-100.1-345.9-124.8s-259.4-26.4-453.3,9.1"/>
                <path class="st1" d="M918.2,449.8c-84-21.8-215.9-58.1-372.5-110.5-188.6-63.1-249-94.6-367.8-114.8-96-16.3-244.5-27.7-451.3,8.6"/>
                <path class="st1" d="M-324.5,239.1c185.7-32.4,328.9-24.7,429.9-7.4,121.6,20.9,182.5,55.2,357.4,115.5,147.5,51,284.1,89.7,395.6,111.2"/>
                <path class="st1" d="M-375.4,245.1c164.6-28.5,302.6-24.5,408.4-6.2,124.4,21.5,185.8,58.7,347.1,116.2,138.4,49.7,279.7,90.8,418.7,111.9"/>
                <path class="st1" d="M-426.4,251.1c143.5-24.6,276.2-24.3,386.9-5,127.3,22.2,189,62.1,336.7,116.9,129.3,48.4,275.3,91.9,441.8,112.6"/>
                <path class="st1" d="M-477.4,257.1c122.3-20.7,249.8-24.1,365.4-3.8,130.1,22.8,192.3,65.6,326.4,117.6,120.1,47.1,270.9,93,464.9,113.3"/>
                <path class="st1" d="M-528.4,263.1c101.2-16.8,223.4-23.9,343.9-2.6,133,23.5,195.6,69.1,316,118.4,111,45.7,266.5,94.1,488,114.1"/>
                <path class="st1" d="M-579.3,269c80.1-12.9,197.1-23.7,322.4-1.4,135.8,24.2,198.9,72.6,305.7,119.1,101.9,44.4,262.1,95.2,511,114.8"/>
              </g>
            </g>
          </g>
        </g>
      </g>
      <g>
        <path class="st9" d="M106.8,115.9s28.7,28.7,27,85.3c0,0,3.4,38-43.1,108.2.7-1,14,1,15.6,1.2,6.1.5,12.2,1,18.3,2.2,11.2,2.2,22.8,6.7,29,16.9,4.1,6.9,6.8,16.5,7.3,24.5,2.5,38-3,41.2-3,41.2,0,0,44.4-56.4,47.8-61.5s21.1-43.9,0-53.2c0,0-15.2-12.7-69.3-11,0,0,25.3-38.9,23.7-90.4,0,0-1.6-24.5-6.7-30.4,11.4,1.6,23,3.3,34.3,5.5,14.7,2.9,35.2,4.5,46.7,15,24.4,22.5-8.5,55.7-21.8,75,11.6,2.6,23.2,5.2,34.7,7.9,9.6,2.2,19.8,5.3,26,13.7,7,9.5,5.4,21.3,1,31.7,0,0-21.1,42.2-71.8,88.7,0,0,68.4-38,109-90.4,6.8-8.8,13.7-19.7,14.7-31.1,1.2-13.8-6.3-23.3-17.3-30.6-10.3-6.9-21.9-14.5-34.6-15.6,1.4.1,7.9-16,8.6-17.7,3-6.9,5.5-14,7-21.3,3-15,0-29.6-14.6-36.9-8.9-4.4-20.2-6.6-30.1-7.5-11.9-1-23.7-3.7-35.6-5.1-27.9-3.1-55.5-8-83.3-11.6-3.5-.4-16.7,0-19.4-2.6Z"/>
        <path class="st9" d="M248.6,372.5s124.5-75.1,131.2-159.1c1.5-18.9,2.2-40.1-11.7-55-3.8-4-12.7-6.6-18-7.1-5.1-.4-10.2.9-14.6,3.4-7.5,4.4-13.8,12-15.9,20.5-5.7,23.6,8.7,48.3,31.5,55.7,1.7.6,8.9,3.7,10.4,2.9,0,0-19.6,10.5-42.1,0-13.8-6.4-24.5-22-26-36.8-1.6-14.9,3.1-30.7,14.4-40.9,5.7-5.2,14.1-10.7,21.5-13,10.7-3.3,22.4-4.2,33.4-2.5,29.6,4.7,49.2,33.7,46.5,62.6-.9,9.7-4.1,20.4-8.7,29.1,0,0-45.9,86.8-151.8,140Z"/>
      </g>
    </g>
  </g>
</svg>