<?xml version="1.0" encoding="UTF-8"?>
<svg id="Livello_1" xmlns="http://www.w3.org/2000/svg" xmlns:xlink="http://www.w3.org/1999/xlink" version="1.1" viewBox="0 0 350 250.6">
  <!-- Generator: Adobe Illustrator 29.6.1, SVG Export Plug-In . SVG Version: 2.1.1 Build 9)  -->
  <defs>
    <style>
      .st0 {
        fill: url(#Sfumatura_senza_nome_41);
      }

      .st1 {
        fill: url(#Sfumatura_senza_nome_1144);
      }

      .st2 {
        fill: url(#Sfumatura_senza_nome_1141);
      }

      .st3 {
        fill: url(#Sfumatura_senza_nome_1142);
      }

      .st4 {
        fill: url(#Sfumatura_senza_nome_1148);
      }

      .st5 {
        fill: url(#Sfumatura_senza_nome_1145);
      }

      .st6 {
        fill: url(#Sfumatura_senza_nome_1146);
      }

      .st7 {
        fill: url(#Sfumatura_senza_nome_1143);
      }

      .st8 {
        fill: url(#Sfumatura_senza_nome_1149);
      }

      .st9 {
        fill: url(#Sfumatura_senza_nome_1147);
      }

      .st10 {
        fill: url(#Sfumatura_senza_nome_11410);
      }

      .st11 {
        fill: url(#Sfumatura_senza_nome_411);
      }

      .st12 {
        fill: url(#Sfumatura_senza_nome_412);
      }

      .st13 {
        fill: url(#Sfumatura_senza_nome_114);
      }
    </style>
    <linearGradient id="Sfumatura_senza_nome_41" data-name="Sfumatura senza nome 41" x1="61.2" y1="-96" x2="61.2" y2="107.8" gradientUnits="userSpaceOnUse">
      <stop offset="0" stop-color="#fff"/>
      <stop offset="1" stop-color="#636362"/>
    </linearGradient>
    <linearGradient id="Sfumatura_senza_nome_411" data-name="Sfumatura senza nome 41" x1="187.6" y1="-96" x2="187.6" y2="107.8" xlink:href="#Sfumatura_senza_nome_41"/>
    <linearGradient id="Sfumatura_senza_nome_412" data-name="Sfumatura senza nome 41" x1="301.5" y1="-96" x2="301.5" y2="107.8" xlink:href="#Sfumatura_senza_nome_41"/>
    <linearGradient id="Sfumatura_senza_nome_114" data-name="Sfumatura senza nome 114" x1="84.2" y1="-34.4" x2="84.2" y2="277.2" gradientUnits="userSpaceOnUse">
      <stop offset="0" stop-color="#c73c40"/>
      <stop offset="1" stop-color="#741709"/>
    </linearGradient>
    <linearGradient id="Sfumatura_senza_nome_1141" data-name="Sfumatura senza nome 114" x1="327.6" y1="-34.4" x2="327.6" y2="277.2" xlink:href="#Sfumatura_senza_nome_114"/>
    <linearGradient id="Sfumatura_senza_nome_1142" data-name="Sfumatura senza nome 114" x1="282.1" y1="-34.4" x2="282.1" y2="277.2" xlink:href="#Sfumatura_senza_nome_114"/>
    <linearGradient id="Sfumatura_senza_nome_1143" data-name="Sfumatura senza nome 114" x1="234.1" y1="-34.4" x2="234.1" y2="277.2" xlink:href="#Sfumatura_senza_nome_114"/>
    <linearGradient id="Sfumatura_senza_nome_1144" data-name="Sfumatura senza nome 114" x1="185.1" y1="-34.4" x2="185.1" y2="277.2" xlink:href="#Sfumatura_senza_nome_114"/>
    <linearGradient id="Sfumatura_senza_nome_1145" data-name="Sfumatura senza nome 114" x1="135.3" y1="-34.4" x2="135.3" y2="277.2" xlink:href="#Sfumatura_senza_nome_114"/>
    <linearGradient id="Sfumatura_senza_nome_1146" data-name="Sfumatura senza nome 114" x1="36.6" y1="-34.4" x2="36.6" y2="277.2" xlink:href="#Sfumatura_senza_nome_114"/>
    <linearGradient id="Sfumatura_senza_nome_1147" data-name="Sfumatura senza nome 114" x1="181.6" y1="-34.4" x2="181.6" y2="277.2" xlink:href="#Sfumatura_senza_nome_114"/>
    <linearGradient id="Sfumatura_senza_nome_1148" data-name="Sfumatura senza nome 114" x1="222.9" y1="-34.4" x2="222.9" y2="277.2" xlink:href="#Sfumatura_senza_nome_114"/>
    <linearGradient id="Sfumatura_senza_nome_1149" data-name="Sfumatura senza nome 114" x1="276.6" y1="-34.4" x2="276.6" y2="277.2" xlink:href="#Sfumatura_senza_nome_114"/>
    <linearGradient id="Sfumatura_senza_nome_11410" data-name="Sfumatura senza nome 114" x1="316.2" y1="-34.4" x2="316.2" y2="277.2" xlink:href="#Sfumatura_senza_nome_114"/>
  </defs>
  <g>
    <path class="st0" d="M113.6,87.8V0h-26.3v43.9h-43.9V0h-26.4v43.9H0v26.4h17v30.3h17.5c3.2,0,6.2.4,8.9,1.1v-31.3h43.9v17.6c0,14.6,6.1,23.1,18.2,25.6v-12.8h17v-12.7h-8.8Z"/>
    <path class="st11" d="M208.2,114s0,.1,0,.2h.2c0,0,0-.1,0-.2ZM244.1,70.3v-26.4c0-29.3-17.1-43.9-51.3-43.9h-61.6v26.3h61.6c13.7,0,20.5,5.8,20.5,17.6h-82.1v56.6h1.5c10.3,0,18.5,3.6,23.6,10v-10h26.7c11.7,0,20.5,4.9,25.3,13.5,4.7-9.1,14-14.6,25.9-14.6s6.9.5,10,1.5v-13h-82.1v-17.6h82.1Z"/>
    <path class="st12" d="M253.2,0v105.6c2,1.6,3.7,3.5,5.2,5.7,4.6-7.6,13-12,23.7-12s20.9,5.5,25.1,14.7h2.3l1-6,1.3-7.5h31.3l1.3,7.5,1.1,6.1h4.2V0h-96.6ZM323.4,87.7h-43.9c0,0,0-61.4,0-61.4h43.9v61.4Z"/>
  </g>
  <g>
    <path class="st13" d="M105.4,185.8l-13.2-76.2h-16.1l-10.8,62.5-2.1,12.3-1.4,8.4h12.6l2.8-18.9h13.9l2.8,18.9h12.8l-1.2-7.1ZM78.8,162.5l5.1-35.1h.3l5.1,35.1h-10.6Z"/>
    <path class="st2" d="M336.4,114.2l-.8-4.6h-16l-.8,4.5-8.8,50.8-4.9,28h12.6l2.7-18.9h13.9l2.7,18.9h12.9l-13.6-78.7ZM322.2,162.5l5.1-35.1h.4l5.1,35.1h-10.6Z"/>
    <path class="st3" d="M301.5,171.3v4c0,5.8-1.7,10.3-4.8,13.4-3.4,3.5-8.4,5.2-14.4,5.2-10.4,0-17.7-5.3-19.2-15.1-.2-1.2-.3-2.5-.3-3.9v-5.5h.7c0,0,11.4-1.2,11.4-1.2v5.7c0,5.6,2.6,8.3,7.1,8.3s6.9-2,6.9-8v-2.6c0-5.2-2.4-9-10.6-16.5-10-9.3-14.1-15.7-14.8-23.4,0-.9-.1-1.8-.1-2.7v-2c0-.2,0-.4,0-.5,0-5.3,1.5-9.4,4.1-12.4,3.2-3.8,8.2-5.7,14.7-5.7s11.2,2,14.5,5.7c2.8,3.2,4.3,7.7,4.3,13.3v2.4l-12.1,1.2v-2.6c0-5.7-2.1-8.3-6.5-8.3s-6.3,2-6.3,6.8v1.8c0,4.6,2.4,8.4,10.6,15.9,8.5,7.9,12.8,13.7,14.3,20.3.5,2,.7,4.1.7,6.4Z"/>
    <path class="st7" d="M254.3,126.7c-.6-7.7-4.3-13.4-10.2-16.2-2.8-1.4-6.2-2.1-10-2.1-6.4,0-11.5,2-15,5.7-3.5,3.6-5.4,8.8-5.4,15.3v43.5c0,.5,0,.9,0,1.4.5,12.2,8.1,19.6,20.3,19.6s17.9-5.7,19.7-15.4c.4-1.7.6-3.6.6-5.6v-43.5c0-.9,0-1.8-.1-2.7ZM241.8,172.8c0,6.2-2.7,9.5-7.7,9.5s-7.7-3.3-7.7-9.5v-43.3c0-6.2,2.7-9.5,7.7-9.5s7.7,3.3,7.7,9.5v43.3Z"/>
    <path class="st1" d="M204.7,165.4c-.7-8.8-4.1-13.9-11-16v-.2c6.7-2.3,9.4-7.7,9.4-17v-1.5c0-7.4-2-13-6.1-16.5-3.4-3-8.1-4.6-14-4.6h-17.6v83.2h18.6c12.7,0,19.9-6.5,20.8-18.5,0,0,0,0,0,0,0-.8,0-1.6,0-2.5v-2.9c0-1.2,0-2.4-.1-3.5ZM178,121.3h4.5c5.5,0,8,3.1,8,9.9v2.7c0,7-2.5,10.1-8.6,10.1h-3.9v-22.7ZM192.2,170.9c0,7-2.7,10.2-8.8,10.2h-5.5v-25.5h4.9c6.6,0,9.4,3.3,9.4,10.7v4.6Z"/>
    <path class="st5" d="M144.7,154.9c5.8-3.3,8.9-9.5,8.9-18.3v-5.9c0-7.4-2.2-13-6.3-16.5-3.5-3-8.4-4.6-14.6-4.6h-18.2v83.2h12.6v-35.2h5.8l10,35.2h13.3l-11.5-37.9ZM141,135.8c0,7-2.7,10.2-8.8,10.2h-5.1v-24.7h5.1c6.1,0,8.8,3.2,8.8,10.2v4.3Z"/>
    <path class="st6" d="M45.2,149.4v-.2c6.6-2.3,9.4-7.7,9.4-17v-1.5c0-10.1-3.9-16.8-11.2-19.6-2.6-1-5.5-1.5-8.9-1.5h-17.6v83.2h18.5c13.6,0,20.9-7.4,20.9-21.1v-2.9c0-10.9-3.3-17.1-11.2-19.5ZM29.5,121.3h4.5c5.5,0,8,3.1,8,9.9v2.7c0,7-2.5,10.1-8.5,10.1h-3.9v-22.7ZM43.7,170.9c0,7-2.7,10.2-8.8,10.2h-5.5v-25.5h4.9c6.7,0,9.4,3.3,9.4,10.7v4.6Z"/>
  </g>
  <g>
    <path class="st9" d="M194.9,206.4l1.7-5h-26.8l-1.7,5h10.5c-4.1,11.6-8,23.7-12,35.2h5.8c3.7-11.5,7.8-23.7,11.9-35.2h10.5Z"/>
    <path class="st4" d="M253.6,232.5c-.6,0-.9-.4-.9-1.1,0-2.2,4.1-7.5,4-11.2,0-2.4-1.8-4.2-4.2-4.2s-5.5,1.6-7.4,4.7c.4-2.8-1.1-4.7-3.6-4.7s-5.1,1.7-7.4,4.8l1.5-4.3h-5.2c-.9,2.8-1.9,5.5-2.8,8.3-2.4,4.5-5.2,7.7-7,7.7s-.6-3.6,3.9-16h-5.3l-.7,2.2c-.8-1.4-2.8-2.7-4.8-2.7-5.1,0-9.5,5.5-10.4,11.6-2.7,4-5.4,5.5-9.2,5.5s-4.5-1.2-4.8-3.3c5.2,1.2,12.1-1.5,12.1-7.7s-2.2-6.1-6.2-6.1c-6.7,0-11.2,6.4-11.2,13.2s4,8.3,9.1,8.3,8.2-1.8,10.5-4.4c.8,2.7,2.7,4.4,5.4,4.4s4.7-1.7,5.9-3.5c.3,1.8,1.7,3.5,4.2,3.5s3.6-1,5.2-2.4c-.2.6-.4,1.3-.6,1.9h5.3c1.9-6.2,5.4-16.2,9.6-16.2s1.2.6,1.2,1.4c0,1.9-1.1,4.5-4.7,14.8h5.2c1.7-5.7,5.5-16.2,9.6-16.2s1.2.6,1.2,1.4c0,2.4-3.9,6.8-3.9,10.8s1.6,4.5,4.7,4.5,8.4-4.2,10-7.1l-2.9-2.9c-1.7,2.6-4.1,5-5.4,5ZM194.9,220.3c1.1,0,1.8.8,1.8,2,0,2.8-3.9,4.6-7.2,4.2.7-3.5,2.8-6.2,5.4-6.2ZM211,232.5c-1.7,0-2.4-1.4-2.4-3,0-4,2.3-8.8,5.7-8.8s2.4.7,3.1,1.7c-2.1,6.8-4.1,10.1-6.4,10.1Z"/>
    <path class="st8" d="M280.6,201.4c-4.6,13-9.2,27.1-13.7,40.2h5.8c4.3-13.2,9-27.2,13.7-40.2h-5.8Z"/>
    <path class="st10" d="M344.6,216.5c-1.9,5.7-3.9,13.6-7.8,13.6s-.7-7.4,1.9-13.6h-5.4c-1.2,3-2.3,5.9-2.8,8.5-2.4,4.5-5.2,7.5-7,7.5s-1.3-1.6.6-7.2c1.4-4.4,4.2-12.2,7.5-20.7h-5.5c-2.6,7.1-5.5,14.9-7.1,19.9-.2.5-.3,1-.5,1.5-2.3,3.9-4.7,6.5-6.4,6.5s-.6-3.6,3.9-16h-5.3l-.7,2.2c-.8-1.4-2.8-2.7-4.8-2.7-5.2,0-9.5,5.6-10.4,11.6-2,3-3.9,4.9-5.3,4.9-2.6,0-2.5-2.8.7-11.9h4.4l1.4-4.1h-4.3c.8-2.1,1.8-4.5,2.8-7.2h-5.4l-2.7,7.2h-2.3l-1.4,4.1h2.2c-3.1,9.3-4.4,16.9,2.8,16.9s5.1-2,7.2-4.5c.8,2.8,2.7,4.5,5.4,4.5s4.7-1.7,5.9-3.5c.3,1.8,1.7,3.5,4.2,3.5s4.8-1.8,6.8-4.1c.2,2.8,1.7,4.1,4.5,4.1s6.1-2.8,8.4-6c.6,1.9,2,3,4.7,3s4-1.1,5.1-2.6l-1.5,4.4c-6.6.9-15,3.1-15,9.3s2.2,5,6.4,5,10-4.2,12.5-11.5c2.7-7.9,5-14.7,7.7-22.6h-5.4ZM302.4,232.5c-1.7,0-2.4-1.4-2.4-3,0-4,2.3-8.8,5.7-8.8s2.4.7,3.1,1.7c-2.1,6.8-4.1,10.1-6.4,10.1ZM330.3,246.4c-1.3,0-1.9-.7-1.9-1.5,0-2.4,4.9-4.3,8.7-4.7-2,4.4-4.5,6.2-6.9,6.2Z"/>
  </g>
</svg>